<svg width="30" height="24" viewBox="0 0 30 24" fill="none" xmlns="http://www.w3.org/2000/svg">
<path d="M27.0002 1.16667C25.5202 0.7 23.8935 0.5 22.3335 0.5C19.7335 0.5 16.9335 1.03333 15.0002 2.5C13.0668 1.03333 10.2668 0.5 7.66683 0.5C5.06683 0.5 2.26683 1.03333 0.333496 2.5V22.0333C0.333496 22.3667 0.666829 22.7 1.00016 22.7C1.1335 22.7 1.20016 22.6333 1.3335 22.6333C3.1335 21.7667 5.7335 21.1667 7.66683 21.1667C10.2668 21.1667 13.0668 21.7 15.0002 23.1667C16.8002 22.0333 20.0668 21.1667 22.3335 21.1667C24.5335 21.1667 26.8002 21.5667 28.6668 22.5667C28.8002 22.6333 28.8668 22.6333 29.0002 22.6333C29.3335 22.6333 29.6668 22.3 29.6668 21.9667V2.5C28.8668 1.9 28.0002 1.5 27.0002 1.16667ZM27.0002 19.1667C25.5335 18.7 23.9335 18.5 22.3335 18.5C20.0668 18.5 16.8002 19.3667 15.0002 20.5V5.16667C16.8002 4.03333 20.0668 3.16667 22.3335 3.16667C23.9335 3.16667 25.5335 3.36667 27.0002 3.83333V19.1667Z" fill="#212243"/>
</svg>
