<svg width="347" height="260" viewBox="0 0 347 260" fill="none" xmlns="http://www.w3.org/2000/svg">
<path d="M0 0H347V260H0V0Z" fill="white" fill-opacity="0.01"/>
<path fill-rule="evenodd" clip-rule="evenodd" d="M210.713 168.676C210.168 176.656 199.329 180.805 192.755 182.508C194.073 174.679 195.774 166.563 194.715 158.623C194.367 156.008 193.91 153.407 193.418 150.815C193.237 149.856 193.049 148.899 192.855 147.943C192.808 147.71 192.427 146.693 192.548 146.461C192.765 146.047 194.604 146.112 195.073 146.13C196.28 146.176 197.465 146.481 198.57 146.963C200.892 147.976 202.849 149.72 204.46 151.645C208.262 156.183 211.124 162.658 210.713 168.676ZM198.164 114.427C191.871 118.15 184.292 120.147 177.114 121.121C166.181 122.605 155.017 120.897 144.328 118.531C141.703 117.95 139.084 117.323 136.498 116.588C136.382 124.156 138.513 131.353 142.675 137.665C146.116 142.883 150.607 147.244 154.533 152.078C158.187 156.578 161.135 161.653 161.281 167.592C161.342 170.071 161.138 172.339 159.061 173.945C156.973 175.559 154.154 176.157 151.6 176.525C145.204 177.446 138.505 176.948 132.149 175.935C130.915 175.738 129.683 175.514 128.466 175.233C127.083 174.915 126.598 174.54 125.443 175.578C122.951 177.815 121.807 181.172 121.243 184.382C120.185 190.396 120.544 197.41 122.069 203.343C123.538 209.058 130.472 212.225 135.609 213.607C151.103 217.772 168.198 212.019 180.087 201.778C180.346 201.554 180.603 201.328 180.854 201.095C181.699 202.852 182.621 204.578 183.629 206.246C184.33 207.407 185.068 208.573 185.952 209.607C186.271 209.979 186.646 210.484 187.082 210.728C187.895 211.183 188.721 210.848 189.641 210.689C196.427 209.512 203.197 207.963 209.649 205.526C219.458 201.819 228.256 195.713 232.905 186.068C235.254 181.196 236.478 175.858 237.071 170.505C237.751 164.358 237.898 158.075 236.166 152.084C232.994 141.105 224.899 132.205 216.035 125.34C210.55 121.092 204.52 117.254 198.164 114.427Z" fill="#6F71B6"/>
<path fill-rule="evenodd" clip-rule="evenodd" d="M309.04 41.7259C307.606 42.2954 306.062 42.4538 304.536 42.5652C303.339 42.6525 302.4 43.1319 301.272 43.159C298.132 43.2338 294.979 43.3746 291.854 43.8435C288.716 44.3144 285.825 43.6993 283.347 46.0552C282.465 46.8934 281.359 47.8573 281.889 49.2104C282.132 49.8299 282.475 50.2744 282.677 50.9397C282.905 51.6916 283.189 52.4018 283.519 53.1179C284.153 54.491 287.325 59.605 284.751 60.2306C281.96 60.9087 278.175 60.1162 275.486 59.3403C273.918 58.8876 272.374 58.3571 270.828 57.8344C269.604 57.4207 267.996 57.1861 266.868 56.5382C266.12 56.1079 265.965 55.3739 265.471 54.6765C264.571 53.408 263.731 52.3277 262.569 51.2721C260.158 49.0828 257.144 47.5962 254.171 46.2898C253.98 46.2048 253.629 46.0075 253.422 45.9878C253.199 45.9672 252.952 46.1974 252.807 46.1693C252.411 46.0924 252.273 45.8433 251.839 45.5972C251.256 45.2667 248.881 44.1668 248.465 45.0315C248.854 43.8956 249.138 44.2234 250.19 44.3882C250.654 44.4613 250.964 44.2491 251.38 44.2704C251.764 44.2897 251.921 44.5081 252.242 44.567C252.829 44.6746 253.376 44.5934 253.989 44.589C254.154 44.2257 254.388 44.2284 254.69 44.5968C254.859 44.6516 255.028 44.7061 255.197 44.7613C255.808 44.9285 256.46 44.8964 257.085 44.9455C258.024 45.0199 260.471 46.1635 260.942 45.0061C261.444 43.77 259.918 43.462 259.664 42.5994C259.416 41.753 260.578 41.2564 261.044 40.7455C261.576 40.1642 261.9 39.6541 262.524 39.1422C262.889 38.8416 263.368 38.5616 263.639 38.1611C263.888 37.7928 263.877 37.1973 264.2 36.8905C264.585 36.5246 264.645 36.7778 264.995 36.6011C265.682 36.2537 265.379 36.2714 265.785 35.7967C266.132 35.3911 266.389 35.4033 266.844 35.0925C267.509 34.6372 267.743 33.7477 268.39 33.2584C268.863 32.9002 269.617 32.9008 270.032 32.5288C270.276 32.3096 270.201 31.9545 270.412 31.7476C270.818 31.3501 271.096 31.5116 271.603 31.3805C272.457 31.1595 272.734 30.6877 273.362 30.1414C273.937 29.6426 274.302 29.6447 275.021 29.4379C276.004 29.1555 276.639 28.4157 277.525 27.9811C278.36 27.5723 279.222 27.2856 280.067 26.85C280.677 26.5354 281.264 26.3402 281.821 26.0191C282.009 25.9108 282.025 25.5139 282.268 25.4602C282.546 25.3982 282.769 25.8607 283.066 25.885C283.686 25.9359 284.393 25.2478 284.801 24.8493C284.979 24.6762 285.218 24.2081 285.446 24.1114C285.923 23.9089 286.208 24.31 286.633 24.1517C287.23 23.9294 286.993 23.2787 287.358 22.9199C287.678 22.6068 288.357 22.628 288.925 22.7271C291.212 23.1255 287.652 24.7401 286.983 25.0667C285.857 25.6167 277.664 29.618 279.58 31.6135C280.595 32.6691 283.07 31.8753 284.173 31.5972C286.106 31.1095 288.12 30.1705 290.103 29.955C290.348 29.9284 291.079 30.1036 291.278 30.0272C291.728 29.855 291.616 29.5106 291.982 29.3295C292.534 29.0575 293.66 29.0707 294.219 29.1318C294.657 29.1797 295.136 29.4406 295.58 29.4053C296.071 29.3663 296.544 29.0815 297.03 28.9897C297.862 28.8332 298.723 28.9099 299.563 28.9342C300.771 28.9694 303.186 29.1518 301.431 30.7553C300.01 32.053 297.553 32.6147 295.761 33.181C293.11 34.018 290.506 34.7797 287.889 35.7334C286.106 36.3827 282.302 37.5236 284.425 39.9584C284.635 39.7607 284.844 39.5633 285.053 39.3656C285.301 39.6158 285.557 40.1026 285.953 40.1168C286.283 40.1284 286.162 39.7742 286.474 39.6635C287.455 39.3159 288.799 39.3423 289.832 39.2769C292.422 39.1131 295.003 38.7701 297.597 38.6638C300.039 38.564 302.507 38.694 304.902 39.2058C305.518 39.3375 311.261 40.8444 309.04 41.7259ZM287.86 66.7614C287.99 67.8482 287.508 68.7273 287.374 69.7772C287.212 71.0464 287.331 72.1642 286.97 73.426C286.27 75.8787 285.772 78.388 285.021 80.8265C283.695 85.1321 281.553 88.9346 279.35 92.841C278.227 94.8326 276.535 96.4773 274.988 98.1432C273.404 99.8505 272.138 101.531 270.244 102.933C266.458 105.735 262.373 108.227 257.892 109.74C253.201 111.325 248.268 111.805 243.341 111.604C241.155 111.514 238.837 111.735 236.685 111.382C234.397 111.006 231.918 110.545 229.669 109.989C225.541 108.971 221.564 107.243 217.532 105.699C213.03 103.975 208.976 101.774 204.871 99.2882C203.785 98.6304 202.637 98.3233 201.618 97.5271C200.759 96.8564 199.914 96.2149 199.011 95.6021C197.975 94.8993 196.983 94.1308 195.924 93.4629C195.291 93.0634 194.401 92.6727 194.069 91.9499C193.611 90.9557 194.162 89.7071 194.447 88.7426C194.818 87.4873 195.212 86.2476 195.658 85.017C196.413 82.9332 198.333 79.7195 197.277 77.5166C195.05 78.8948 194.068 81.6041 193.116 83.9072C191.979 86.6589 191.186 89.4038 191.014 92.388C190.67 98.391 191.675 104.71 193.855 110.307C194.179 111.138 194.748 112.04 194.33 112.929C193.891 113.862 192.7 114.65 191.785 115.054C188.889 116.33 185.982 116.701 182.958 117.407C182.135 117.599 181.233 118.176 180.461 118.249C179.939 118.298 179.508 118.127 178.911 118.131C178.311 118.135 177.842 118.471 177.305 118.507C176.836 118.539 176.42 118.265 175.973 118.291C174.974 118.349 174.789 120.061 174.294 118.554C174.204 118.616 173.707 119.177 173.645 119.178C173.504 119.178 173.255 118.759 173.12 118.685C172.857 118.539 172.511 118.531 172.217 118.493C171.568 118.408 170.869 118.4 170.231 118.548C169.047 118.824 167.856 118.708 166.844 118.688C166.614 118.684 166.45 118.869 166.164 118.858C166.033 118.853 165.846 118.622 165.707 118.586C164.907 118.38 164.076 118.534 163.261 118.489C161.345 118.384 159.496 118.332 157.625 117.91C153.792 117.043 149.884 116.869 146.036 116.076C144.075 115.672 142.16 115.452 140.229 114.919C139.551 114.732 138.855 114.643 138.254 114.388C137.68 114.144 137.906 113.819 137.015 114.472C136.615 113.492 136.567 113.592 135.601 113.268C135.227 113.142 134.369 112.831 134.09 112.584C134.063 112.559 133.468 111.067 133.417 110.884C133.169 109.993 133.375 108.974 133.479 108.077C133.712 106.055 134.05 104.049 134.07 102.011C134.079 101.113 134.241 101.087 134.521 100.409C134.607 100.199 134.862 100.216 134.883 99.8962C134.912 99.47 134.475 99.1734 134.522 98.6758C134.585 98.0061 135.258 97.3277 135.494 96.7038C135.778 95.9525 135.774 95.158 135.944 94.3803C136.17 93.3458 136.608 92.3748 136.829 91.3358C137.017 90.456 137.035 89.7562 137.504 89.0013C137.973 88.2477 137.835 87.6325 138.208 86.882C138.551 86.1937 138.985 85.9466 139.22 85.1155C139.789 83.1049 140.653 81.1142 141.877 79.4097C142.953 83.6838 144.099 88.0997 147.096 91.478C148.331 92.8691 149.925 94.2727 151.787 94.6965C153.892 95.1756 155.575 93.9352 156.946 92.4659C160.212 88.9643 161.565 85.0559 161.762 80.3082C161.811 79.128 161.804 77.9462 161.788 76.7653C161.781 76.2399 161.511 74.8912 161.871 74.4494C162.267 73.9649 163.394 74.2676 163.981 73.9483C164.703 73.555 165.496 72.5031 165.174 71.6358C167.097 72.5058 168.936 73.6511 171.075 73.8935C171.922 73.9896 172.824 73.8434 173.581 73.8031C173.558 73.8041 174.167 73.9284 174.204 73.9365C174.354 73.7635 174.517 73.7215 174.691 73.8102C174.847 73.8268 174.96 73.9101 175.031 74.0607C178.08 74.3651 181.15 72.8599 183.76 71.2657C185.284 70.3341 186.959 68.9552 187.387 67.1416C187.54 66.4947 187.407 65.8849 188.077 65.5549C188.621 65.2861 189.671 65.6737 190.245 65.7157C192.265 65.8636 194.255 65.672 196.226 66.2733C197.429 66.6402 199.529 69.2115 200.368 67.4026C200.732 67.7439 200.535 68.3516 200.922 68.6837C201.26 68.9731 202.396 69.1769 202.863 69.4247C203.586 69.808 204.01 70.3182 204.644 70.7789C205.422 71.3453 206.236 71.389 206.989 72.0535C209.598 74.3549 212.654 76.0219 215.567 77.9306C219.023 80.1948 222.082 82.8638 225.79 84.7106C229.583 86.599 233.253 88.1766 237.398 89.159C239.278 89.6049 241.206 89.9769 243.136 90.1144C244.046 90.1787 244.915 90.1462 245.793 90.4191C246.326 90.585 246.499 90.6679 247.023 90.6831C247.328 90.6919 247.77 90.5159 248.146 90.5227C248.918 90.5365 249.313 90.5047 250.01 90.76C250.798 91.0488 251.454 91.2224 252.352 91.2471C253.385 91.2763 253.993 90.8798 254.932 90.6354C255.688 90.4384 256.369 90.5325 257.046 90.1232C260.054 88.3052 262.471 85.5288 264.049 82.377C265.86 78.7597 267.256 74.3498 267.539 70.2961C267.702 67.9758 267.19 65.713 266.303 63.5825C266.052 62.9816 264.551 60.4219 265.013 59.9571C265.538 59.4286 267.256 60.6396 267.74 60.9026C269.276 61.7368 272.05 62.0039 273.127 63.4072C273.401 62.8814 274.927 63.6607 275.416 63.8801C275.821 64.0616 275.935 64.3896 276.444 64.4289C276.924 64.4658 277.419 64.0836 277.86 63.9617C277.538 64.8598 278.621 64.9018 279.364 64.9496C279.898 64.9837 280.473 64.8998 280.949 64.8659C281.86 64.8013 281.875 64.5968 282.707 64.1303C282.675 64.4719 282.712 64.8057 282.818 65.1314C283.353 64.3578 284.374 64.8951 285.096 64.5552C284.574 63.7633 286.804 63.5463 287.324 63.7129C288.631 64.1323 287.745 65.7986 287.86 66.7614ZM185.485 121.187C186.348 120.93 187.216 120.696 188.081 120.45C187.425 121.051 186.745 122.135 185.809 122.305C184.68 122.508 184.235 121.559 185.485 121.187ZM142.894 121.618C144.347 121.792 145.928 121.659 147.201 122.516C146.581 123.228 146.178 123.975 145.143 123.566C144.273 123.223 143.558 122.243 142.894 121.618ZM191.417 160.661C190.463 159.807 190.589 159.425 191.036 158.319C191.229 157.843 191.534 156.364 192.258 156.797C192.515 156.951 192.826 158.562 192.872 158.889C192.974 159.619 192.522 161.652 191.417 160.661ZM196.795 155.699C196.459 154.462 196.47 153.116 196.139 151.848C195.79 150.51 195.36 149.168 195.236 147.785C200.275 148.674 203.137 153.67 205.32 157.84C206.479 160.055 207.616 162.505 208.054 164.982C208.481 167.396 207.74 169.228 206.88 171.379C206.441 172.477 205.716 172.858 204.87 173.584C204.12 174.226 203.839 175.311 203.058 175.889C202.481 176.316 201.731 176.537 201.127 176.968C200.531 177.393 199.934 177.815 199.319 178.213C198.615 178.667 196.507 180.323 195.557 179.97C194.846 179.705 195.162 178.836 195.342 178.291C195.719 177.142 195.984 176.036 196.217 174.838C196.838 171.642 197.175 168.466 197.337 165.215C197.494 162.041 197.641 158.798 196.795 155.699ZM192.581 170.114C192.657 170.272 192.971 171.613 192.269 171.338C191.781 171.146 192.509 170.361 192.581 170.114ZM195.55 116.844C196.144 116.599 196.382 117.325 196.906 117.347C197.6 117.375 197.745 116.604 198.474 116.582C200.254 116.526 202.834 118.245 204.282 119.142C203.573 120.037 203.281 120.953 203.633 122.056C203.944 123.027 205.131 124.113 205.087 125.142C205.042 126.174 203.758 126.839 203.358 127.757C202.99 128.6 202.85 130.287 203.986 130.658C205.94 131.298 206.387 127.642 207.867 127.613C208.5 127.601 209.323 128.79 209.778 129.161C210.798 129.99 211.948 130.595 213.133 131.146C213.934 131.517 215.048 132.25 215.641 131.251C216.117 130.451 215.728 129.184 215.266 128.496C214.736 127.706 209.984 124.092 210.284 123.774C210.444 123.604 211.627 124.072 211.795 124.215C212.174 124.535 212.313 125.057 212.692 125.398C213.272 125.919 214.021 126.125 214.738 126.366C216.234 126.868 217.18 128.635 218.63 129.457C219.466 129.932 219.977 130.843 220.684 131.548C221.61 132.472 222.554 133.44 222.415 134.8C222.318 135.742 222.178 137.937 221.645 138.732C221.065 139.595 220.102 139.265 219.222 139.468C218.232 139.698 217.44 140.469 217.637 141.571C217.842 142.717 218.759 142.799 219.718 142.828C222.421 142.91 221.425 144.624 222.368 146.508C222.88 147.53 223.734 147.932 224.322 146.735C224.795 145.772 223.95 144.253 224.463 143.431C225.089 142.429 228.437 142.701 229.136 143.48C229.665 144.07 229.945 144.882 230.473 145.499C231.275 146.437 231.604 147.751 232.085 148.9C232.595 150.121 233.04 151.359 233.431 152.623C233.706 153.511 234.299 154.918 232.879 154.159C231.887 153.63 231.146 152.435 229.89 152.397C228.647 152.36 227.939 153.65 228.302 154.771C228.653 155.856 230.256 156.334 230.441 157.435C230.645 158.639 228.581 159.867 227.954 160.752C226.511 162.79 227.718 165.085 230.083 163.355C230.922 162.742 231.8 161.505 232.746 161.117C234.242 160.504 234.233 162.776 234.95 163.612C235.335 164.062 235.475 163.605 235.246 164.277C235.162 164.525 234.735 164.602 234.687 164.91C234.652 165.136 234.854 165.256 234.861 165.43C234.885 166.023 234.886 166.11 234.753 166.754C234.606 167.468 234.659 168.355 234.615 169.08C234.513 170.738 234.491 172.321 234.316 173.979C234.22 174.901 234.017 176.78 235.107 177.229C234.719 177.837 234.203 179.526 233.44 179.399C233.502 179.799 233.467 180.31 233.856 180.571C233.949 180.327 234.042 180.084 234.135 179.839C234.348 180.397 234.16 180.461 234.148 180.84C234.164 180.371 233.719 181.496 233.959 181.357C233.755 181.528 233.485 181.625 233.177 181.847C232.748 182.155 232.521 182.582 232.188 183C231.584 183.755 231.619 184.517 231.091 185.305C230.341 186.422 229.38 187.524 228.59 188.641C227.947 189.549 226.722 190.073 226.207 191.05C225.879 191.671 225.749 192.393 225.19 192.83C224.389 193.456 223.32 194.045 222.45 194.691C221.903 195.097 221.487 195.661 220.942 196.055C220.665 196.255 219.833 196.457 219.832 196.864C218.786 196.571 218.044 195.502 217.221 194.852C216.671 194.418 215.361 193.853 215.44 192.982C215.505 192.27 216.519 191.386 216.752 190.639C216.951 190.006 217.226 188.825 216.678 188.284C215.529 187.15 214.226 189.585 213.609 190.233C212.336 191.569 211.795 190.221 210.748 189.251C209.077 187.701 208.026 189.309 208.614 191.239C208.912 192.217 210.047 193.088 210.121 194.086C210.202 195.182 209.012 195.734 208.542 196.61C208.097 197.436 207.892 198.888 208.727 199.572C209.649 200.326 210.45 199.434 211.052 198.737C211.52 198.197 212.04 197.007 212.8 196.939C213.753 196.855 215.314 198.582 216.039 199.116C214.938 199.434 214.276 200.355 213.345 200.944C212.144 201.706 210.468 201.886 209.124 202.408C207.858 202.901 206.72 203.301 205.514 203.912C204.084 204.637 202.334 204.818 200.82 205.345C199.467 205.816 198.184 206.477 196.803 206.866C195.246 207.305 193.631 207.568 192.061 207.965C190.719 208.303 189.145 208.629 187.761 208.631C186.362 208.634 186.391 207.768 185.944 206.615C185.412 205.245 184.532 204.043 183.97 202.706C183.436 201.435 184.243 200.952 185.017 199.98C185.746 199.063 185.553 198.919 186.493 199.563C187.73 200.41 188.548 199.837 189.51 198.863C190.367 197.997 190.682 197.277 191.914 197.88C193.148 198.484 194.322 199.465 195.647 199.859C196.691 200.169 197.469 199.944 197.644 198.803C197.833 197.57 197.129 196.695 196.242 195.963C195.567 195.407 194.093 194.746 193.846 193.842C193.586 192.89 194.955 191.501 195.102 190.437C195.286 189.093 194.707 188.105 193.431 189.036C192.505 189.71 191.889 191.174 190.604 191.265C190.961 189.769 191.735 188.439 192.399 187.068C192.956 185.921 193.433 184.618 194.928 184.49C195.412 184.448 195.727 184.499 196.19 184.415C196.8 184.306 197.628 184.218 198.281 184.054C199.816 183.666 201.172 182.482 202.585 181.803C202.909 182.675 203.483 185.157 204.803 183.708C205.779 182.636 204.698 180.791 205.597 179.599C207.452 177.139 211.493 178.945 213.93 177.676C214.991 177.124 215.855 175.363 214.359 174.832C213.485 174.522 210.96 175.667 210.435 174.823C210.059 174.221 211.631 171.868 211.82 171.222C212.411 169.21 212.316 167.12 212.316 165.048C213.502 165.533 215.002 166.667 216.281 166.823C217.595 166.982 217.826 165.441 217.482 164.428C217.007 163.033 215.425 161.89 214.341 160.991C213.863 160.595 212.612 159.957 212.35 159.355C212.08 158.733 212.467 158.432 212.771 157.891C213.245 157.047 214.395 154.864 213.144 154.072C211.993 153.344 211.348 155.385 210.615 155.821C209.371 156.562 208.945 154.865 208.45 154.002C207.553 152.434 206.309 151.035 205.192 149.624C204.176 148.34 203.549 147.471 203.401 145.835C203.288 144.595 203.035 143.636 204.498 143.354C207.091 142.855 210.887 144.085 212.993 141.977C214.098 140.872 213.309 139.729 211.914 139.786C210.082 139.86 208.34 139.951 206.496 139.802C205.515 139.723 203.466 139.961 202.971 138.952C202.334 137.652 203.414 135.563 202.241 134.424C200.743 132.969 200.376 136.257 200.327 137.165C200.29 137.826 200.46 138.833 200.048 139.405C199.664 139.939 198.961 139.931 198.393 140.124C196.962 140.61 196.222 142.367 198.121 142.739C198.76 142.864 199.651 142.682 200.181 143.155C200.738 143.651 200.525 144.531 200.577 145.198C199.247 143.658 196.482 144.341 194.68 143.768C193.731 143.467 193.571 143.066 193.172 142.148C192.689 141.036 191.588 139.632 191.546 138.403C191.51 137.36 192.38 136.575 192.785 135.676C193.134 134.904 193.449 133.648 193.397 132.783C193.273 130.695 189.503 132.826 188.726 133.625C187.317 135.075 185.579 136.951 186.343 139.005C187.025 140.837 187.386 141.876 185.022 141.732C184.156 141.679 182.338 141.851 181.667 141.485C181.168 141.215 181.356 140.728 181.339 140.024C181.325 139.414 181.371 138.49 180.98 137.956C179.6 136.082 179.278 140.747 178.503 141.253C177.293 142.043 174.732 141.215 174.929 143.561C175.103 145.613 177.879 144.775 178.647 146.541C179.017 147.392 178.938 148.382 179.404 149.203C180.068 150.373 180.885 150.31 181.325 149.091C181.634 148.234 181.222 147.353 181.46 146.545C181.803 145.376 183.438 145.484 184.444 145.352C185.666 145.191 186.731 144.884 187.894 144.508C189.329 144.044 189.251 144.806 189.484 145.908C189.755 147.187 190.169 148.42 190.423 149.718C190.66 150.928 191.288 152.23 191.39 153.441C191.468 154.367 191.154 154.282 190.387 154.816C189.549 155.4 188.626 156.917 187.653 157.167C186.19 157.542 184.714 154.199 183.383 155.91C182.811 156.644 183.032 158.208 183.439 158.966C183.976 159.969 184.964 160.224 184.136 161.372C183.514 162.235 182.732 162.903 182.674 164.064C182.619 165.141 183.353 166.161 184.499 165.844C185.426 165.589 185.973 164.641 186.675 164.065C187.886 163.071 188.88 163.992 190.12 164.554C191.095 164.997 192.889 165.286 193.378 166.327C193.999 167.649 193.203 168.159 192.048 167.784C192.498 169.261 191.906 170.119 191.744 171.646C191.612 172.882 191.328 174.013 191.147 175.208C190.906 176.803 190.881 176.63 189.237 176.685C187.841 176.731 186.484 176.693 185.089 176.632C183.861 176.578 183.025 176.689 182.97 175.208C182.946 174.554 183.358 172.338 182.069 172.604C180.933 172.838 181.26 174.863 180.88 175.624C180.331 176.726 179.401 176.389 178.368 176.661C177.316 176.938 176.465 177.714 176.737 178.913C177.027 180.193 178.201 180.104 179.221 180.4C180.793 180.856 180.449 183.166 181.366 184.421C181.74 184.933 182.134 185.45 182.763 185.03C183.915 184.259 182.827 182.376 183.132 181.431C183.452 180.438 184.532 180.641 185.553 180.512C187.06 180.322 188.637 179.596 190.138 179.605C189.85 180.47 189.044 180.974 188.753 181.885C188.598 182.373 188.743 183.286 188.527 183.69C188.295 184.124 187.563 184.254 187.26 184.857C186.863 185.648 186.741 186.494 186.277 187.269C185.18 189.1 184.236 190.971 183.07 192.784C181.867 194.655 180.569 196.436 179.055 198.058C177.586 199.633 177.148 198.87 175.886 197.583C175.372 197.06 174.281 196.453 174.138 195.671C173.997 194.9 174.635 194.271 174.985 193.643C175.448 192.811 176.285 191.38 176.081 190.381C175.698 188.506 174.021 190.233 173.385 190.934C172.274 192.16 171.653 193.449 169.974 192.481C168.9 191.861 167.545 190.164 166.134 190.792C164.85 191.363 165.21 193.014 166 193.851C166.442 194.321 167.073 194.589 167.542 195.028C168.553 195.975 167.981 196.232 167.519 197.292C167.142 198.16 167.087 199.866 167.783 200.589C169.152 202.011 170.211 199.142 171.482 199.083C172.084 199.056 174.588 200.698 174.767 201.289C175.08 202.326 172.378 203.564 171.661 204.051C169.991 205.183 168.172 206.337 166.294 207.088C164.078 207.974 165.73 205.182 164.518 204.254C162.943 203.048 162.821 206.353 162.659 207.175C162.229 209.359 159.92 209.416 158.057 209.957C156.871 210.302 155.684 210.669 154.486 210.969C153.469 211.223 152.33 211.217 151.344 211.532C150.48 211.809 149.888 212.37 148.921 212.376C148.607 212.379 148.334 212.272 148.03 212.265C147.419 212.25 146.859 212.599 146.274 212.563C145.302 212.503 145.725 212.197 145.387 211.519C145.069 210.883 144.261 210.649 143.633 210.451C141.83 209.882 140.33 210.38 140.068 208.091C139.987 207.388 140.094 204.501 138.755 204.838C137.191 205.231 138.567 208.663 137.597 209.523C137.124 209.941 136.411 209.732 135.842 209.856C134.907 210.059 134.498 210.764 133.475 210.717C132.612 210.677 131.808 210.294 131.056 209.914C129.935 209.347 128.597 208.972 127.662 208.107C126.38 206.92 125.818 205.074 125.272 203.471C124.468 201.109 124.125 198.756 123.996 196.279C123.951 195.416 123.584 194.807 123.431 194.015C123.268 193.173 123.75 193.004 123.86 192.206C123.968 191.43 123.916 190.601 124.079 189.77C124.314 188.574 124.396 187.352 124.624 186.153C125.001 184.17 125.572 182.2 126.041 180.236C126.187 179.625 126.451 177.668 127.205 177.48C127.761 177.341 129.046 178.169 129.561 178.412C130.581 178.893 131.457 179.556 132.548 179.889C133.111 180.061 133.821 180.044 134.191 180.566C134.775 181.392 134.303 183.01 134.545 183.987C134.841 185.182 135.821 185.69 136.612 184.49C137.033 183.85 136.921 183.086 136.977 182.379C137.058 181.358 137.076 181.112 138.181 181.18C139.3 181.25 140.393 181.673 141.541 181.724C142.576 181.77 143.616 181.742 144.65 181.685C147.16 181.548 149.456 181.14 151.811 180.247C153.406 179.642 155.255 178.319 157.013 178.366C159.494 178.431 158.823 180.726 159.162 182.443C159.369 183.488 161.118 186.696 161.79 184.093C162.122 182.805 161.015 180.928 161.671 179.765C162.446 178.39 165.293 179.531 166.589 179.212C167.637 178.955 169.39 177.47 168.649 176.188C168.298 175.581 167.617 175.696 167.01 175.651C165.859 175.565 164.716 175.408 163.574 175.24C162.925 175.145 161.932 175.089 161.673 174.344C161.452 173.711 162.485 172.071 162.71 171.466C163.451 169.463 163.719 167.834 163.722 165.65C163.722 164.666 163.787 163.627 163.628 162.653C163.57 162.297 163.034 161.132 163.285 160.791C163.623 160.332 164.313 160.914 164.591 161.258C165.141 161.943 164.95 161.888 164.637 162.598C164.176 163.641 163.28 165.83 164.799 166.634C166.388 167.474 166.962 164.634 168.467 164.946C169.169 165.091 169.862 166.013 170.427 166.443C171.089 166.948 171.804 167.483 172.582 167.792C173.859 168.3 175.293 167.919 174.777 166.315C174.371 165.051 173.084 163.993 172.164 163.096C170.698 161.668 170.765 161.067 171.777 159.385C172.201 158.681 173.828 155.691 171.942 155.447C170.944 155.319 169.864 156.936 169.337 157.555C168.432 158.617 167.913 159.073 166.566 158.22C165.25 157.386 164.639 156.69 163.047 156.613C161.216 156.524 160.392 153.775 159.421 152.363C156.783 148.527 152.744 146.63 149.339 143.691C147.679 142.259 146.559 140.385 145.297 138.622C144.696 137.782 143.92 137.084 143.43 136.169C143.122 135.594 142.288 134.207 142.505 133.528C142.775 132.682 144.235 132.161 144.842 131.563C145.351 131.063 145.623 130.438 146.425 130.629C147.138 130.8 147.781 131.764 148.364 132.188C148.937 132.604 149.582 132.99 150.217 133.301C151.365 133.864 152.751 134.165 152.819 132.454C152.877 130.973 151.526 129.388 150.55 128.389C149.839 127.662 148.763 127.031 148.904 125.877C148.973 125.304 149.46 124.285 149.744 123.805C150.723 122.153 153.712 123.161 155.336 123.267C157.293 123.395 159.45 123.066 161.006 124.45C161.513 124.901 162.689 125.787 162.938 126.415C163.228 127.146 162.754 127.475 162.491 128.182C162.151 129.096 161.917 130.902 162.896 131.532C164.53 132.584 165.382 129.464 167.081 130.146C168.692 130.794 169.818 132.655 171.656 132.949C174.063 133.334 172.692 130.354 171.86 129.478C170.78 128.341 168.685 127.165 169.371 125.485C169.567 125.004 170.014 124.002 170.417 123.704C171.205 123.12 172.476 123.44 173.378 123.45C175.656 123.474 177.806 123.287 180.038 122.889C180.711 122.769 180.864 122.674 181.338 123.175C181.995 123.868 182.339 124.771 183.103 125.452C182 126.64 180.364 128.043 181.132 129.871C181.791 131.445 183.238 130.673 184.217 129.832C184.677 129.438 185.152 128.602 185.761 128.444C186.552 128.238 187.441 128.956 188.089 129.32C189.06 129.868 191.139 131.49 192.243 130.532C193.703 129.265 191.975 127.359 190.969 126.577C190.361 126.104 189.551 125.766 189.039 125.182C188.358 124.405 188.757 124.291 189.17 123.59C189.925 122.309 189.648 120.658 190.857 119.657C191.527 119.102 192.485 118.753 193.25 118.346C194.003 117.945 194.811 117.149 195.55 116.844ZM207.861 121.829C207.568 121.649 207.274 121.469 206.98 121.289C207.652 120.962 208.095 121.001 207.861 121.829ZM224.074 137.402C224.193 136.804 224.654 135.734 225.29 136.293C225.699 136.653 225.252 138.003 226.226 137.63C226.276 138.49 225.635 138.417 226.581 139.182C225.387 139.044 223.74 139.098 224.074 137.402ZM177.747 209.922C178.048 209.116 178.046 207.867 178.971 208.603C179.019 207.628 178.788 204.534 180.561 204.659C181.284 204.71 181.276 205.348 181.467 205.899C181.8 206.862 182.362 207.739 182.836 208.636C181.077 208.707 179.317 209.109 177.747 209.922ZM178.323 221.042C179.329 221.801 179.833 220.905 180.782 220.578C181.658 220.276 182.567 220.457 183.538 220.243C184.741 219.977 186.159 220.018 187.335 220.007C187.624 220.005 188.23 220.05 188.523 220.084C189.056 220.145 189.009 220.256 189.561 220.404C189.774 220.355 189.989 220.319 190.207 220.297C190.473 220.285 190.683 220.395 190.837 220.627C191.334 220.792 191.514 220.682 191.99 220.798C193.122 221.074 193.967 221.756 194.706 222.66C196.212 224.499 196.257 227.262 196.222 229.539C196.212 230.187 196.163 230.832 196.235 231.479C196.3 232.072 196.72 232.968 196.548 233.558C196.289 234.45 195.484 234.249 194.548 234.289C193.996 234.312 193.446 234.668 193.007 234.699C192.583 234.73 192.412 234.573 191.983 234.477C190.862 234.227 189.54 234.584 188.434 234.889C187.3 235.202 186.305 235.51 185.155 235.732C184.407 235.876 183.733 235.957 182.978 236.052C182.359 236.129 182.092 236.455 181.552 236.589C181.031 236.718 180.523 236.525 179.998 236.626C179.281 236.765 178.782 237.29 178.13 237.551C177.23 237.912 175.792 237.373 175.393 238.484C175.237 237.413 174.208 237.704 173.442 237.609C172.179 237.452 170.935 236.887 169.721 236.526C168.726 236.23 165.284 233.504 164.624 234.611C164.625 234.499 164.745 233.865 164.641 233.792C164.274 233.534 164.277 233.676 163.881 233.515C163.276 233.267 163.022 233.044 162.589 232.628C161.715 231.786 160.538 231.345 159.617 230.581C157.302 228.662 156.51 224.709 155.945 221.957C155.207 223.265 155.479 221.587 155.606 221.026C155.909 219.703 155.52 219.05 155.432 217.772C155.351 216.596 155.888 216.364 156.95 216.241C158.259 216.089 159.519 215.878 160.802 215.551C162.026 215.239 163.226 214.888 164.331 214.267C165.342 213.7 166.403 213.477 167.437 212.98C168.577 212.432 169.695 211.856 170.846 211.322C171.364 211.082 173.647 209.361 174.044 209.466C174.858 209.681 174.089 211.104 173.841 211.478C173.204 212.438 172.157 212.882 171.213 213.486C170.361 214.03 167.779 216.609 170.401 216.35C172.138 216.179 173.315 214.36 174.426 216.433C174.819 217.165 175.396 217.753 174.945 218.509C174.315 219.565 172.498 220.068 171.546 220.778C170.734 221.384 169.073 224.238 170.747 224.544C171.228 224.632 171.97 224.518 172.328 224.144C172.569 223.892 172.552 223.374 172.796 223.201C173.142 222.956 173.814 223.259 174.209 223.125C174.771 222.934 174.903 222.627 175.11 222.087C175.711 222.361 175.719 222.729 176.405 222.375C176.633 222.258 176.716 221.828 176.98 221.714C177.333 221.56 177.439 222.065 177.633 221.99C178.159 221.789 178.157 221.562 178.323 221.042ZM142.264 212.648C141.256 212.723 140.156 212.804 139.296 212.162C140.341 212.225 141.262 212.461 142.309 212.245C142.725 212.16 143.391 211.767 143.817 211.904C145.332 212.389 142.667 212.617 142.264 212.648ZM139.466 124.101C139.451 123.747 139.15 118.984 140.779 120.855C141.225 121.367 140.744 122.052 140.68 122.618C140.573 123.572 140.908 124.528 141.411 125.332C141.88 126.081 142.757 126.737 142.626 127.714C142.51 128.571 141.644 129.303 141.218 130.014C140.169 128.362 139.55 126.089 139.466 124.101ZM135.886 74.1102C132.112 74.5069 128.357 75.2091 124.718 76.2927C121.145 77.3564 117.815 79.0197 114.458 80.6132C113.766 77.6533 113.041 74.7013 112.358 71.739C112.029 70.3134 111.715 68.8841 111.407 67.4534C111.188 66.4364 110.391 64.5399 110.724 63.5395C110.9 63.0094 111.133 63.007 111.513 62.6796C111.745 62.4799 112.148 61.991 112.389 61.8864C112.974 61.6322 114.477 61.4094 115.076 61.4457C115.622 61.4785 115.907 61.6952 116.468 61.5384C116.946 61.405 117.348 61.0374 117.797 60.8359C118.938 60.323 120.364 60.1511 121.585 59.8796C122.76 59.6185 123.973 59.5603 125.151 59.3017C126.182 59.0748 126.673 58.3162 127.553 58.3436C129.843 58.415 132.375 58.1469 134.647 57.6002C137.197 56.9871 139.97 57.1055 142.585 57.0399C143.627 57.0138 144.359 56.7795 144.365 57.9387C144.371 59.3531 143.805 60.9412 143.517 62.3221C142.877 65.3839 142.335 68.36 142.093 71.4689C141.972 73.0241 141.334 72.9154 140.069 73.3924C138.661 73.9229 137.383 73.9531 135.886 74.1102ZM116.043 105.523C116.973 105.66 116.867 103.119 116.935 102.602C119.152 106.779 121.649 110.8 123.602 115.114C124.059 116.123 124.473 117.155 124.956 118.152C125.286 118.834 126.025 119.75 126.007 120.544C125.988 121.373 125.319 121.683 124.613 121.99C123.85 122.322 123.552 122.487 123.014 122.104C122.364 121.639 121.82 120.207 121.419 119.517C120.805 118.464 120.217 117.395 119.616 116.335C118.527 114.413 117.242 112.572 116.348 110.554C115.51 108.663 114.242 107.036 113.338 105.179C112.444 103.34 111.219 101.596 110.191 99.7953C111.224 99.366 112.511 98.2932 113.685 98.3528C114.897 98.4144 114.867 99.5834 114.92 100.557C114.975 101.591 114.629 105.314 116.043 105.523ZM119.021 124.396C118.468 125.052 117.221 125.437 116.456 125.8C115.397 126.304 114.312 126.752 113.258 127.265C109.799 128.952 106.355 130.495 102.832 132.043C101.01 132.844 99.2112 133.695 97.4338 134.588C96.5026 135.056 94.4511 136.696 93.38 136.737C92.1519 136.785 92.1231 134.308 91.8527 133.378C91.6253 132.601 91.2034 131.995 90.9194 131.258C90.8039 130.957 90.8937 130.729 90.7175 130.431C90.5169 130.091 89.9547 129.817 89.6656 129.524C88.4383 128.279 87.421 126.693 86.3844 125.29C85.4349 124.005 83.8151 122.396 83.3597 120.821C82.464 117.725 87.6673 116.011 89.6582 114.768C93.1438 112.59 96.6463 110.353 99.9692 107.933C101.483 106.831 102.964 105.685 104.486 104.592C105.196 104.083 107.163 102.1 108.074 102.807C108.413 103.07 108.42 103.798 108.561 104.179C108.871 105.013 109.34 105.741 109.816 106.489C110.239 107.151 110.839 107.836 111.103 108.575C111.418 109.456 111.404 109.955 111.98 110.745C113.027 112.183 113.522 113.841 114.496 115.307C115.436 116.72 116.338 117.762 116.953 119.341C117.305 120.246 117.861 121.049 118.352 121.881C118.584 122.274 118.826 122.66 119.033 123.067C119.405 123.795 119.536 123.785 119.021 124.396ZM89.2902 136.488C88.6253 136.964 87.6467 136.165 87.0018 136.154C86.7212 136.149 86.4427 136.368 86.2553 136.362C85.6917 136.345 85.2312 135.966 84.7124 135.79C82.3176 134.977 79.4624 134.945 77.4166 133.293C73.3526 130.009 75.2902 123.42 76.0303 119.152C76.1811 118.281 76.4525 117.076 75.7487 116.363C74.9771 115.582 73.8165 116.048 73.1103 116.68C72.3858 117.328 71.8931 118.236 71.2909 118.993C70.3316 120.199 69.2845 121.338 68.2269 122.457C64.4692 126.433 60.4899 130.982 55.8413 133.899C53.908 135.113 52.1581 136.758 50.0392 137.683C47.4902 138.795 50.107 134.5 50.5651 133.802C53.5651 129.235 57.9328 125.62 61.6007 121.611C62.293 120.854 63.276 119.834 63.2882 118.744C63.3069 117.107 61.8599 117.254 60.7155 117.708C59.6454 118.133 59.1093 119.191 58.2483 119.914C57.1764 120.814 55.924 121.544 54.7308 122.27C52.1574 123.837 49.4258 125.152 46.7024 126.433C45.4286 127.033 44.1487 127.62 42.8688 128.206C42.5174 128.368 40.4177 129.698 40.518 128.557C40.5316 128.404 41.8711 126.779 42.0365 126.719C42.8613 126.417 43.2703 127.327 44.0043 126.135C44.5258 125.289 44.598 124.849 45.3344 124.207C45.4597 124.098 45.5458 123.822 45.6475 123.643C45.6349 123.71 46.1944 123.167 46.0873 123.261C46.2344 123.131 46.4479 122.894 46.5672 122.738C47.1429 121.987 48.2493 121.973 48.7495 121.115C48.9402 120.788 48.8321 120.369 49.0622 120.044C49.3845 119.59 50.0934 119.396 50.4716 118.996C50.7959 118.652 51.0632 118.371 51.2645 118.161C51.4031 118.016 51.6464 117.915 51.8104 117.749C52.2188 117.336 52.1866 116.971 52.7579 116.624C53.271 116.313 53.5068 116.604 53.6844 115.833C54.3086 116.233 54.2303 115.648 54.4838 115.229C54.8131 114.684 55.2316 114.441 55.6857 114.046C56.6847 113.178 57.6213 111.886 58.4712 110.793C60.5851 108.076 62.2947 104.898 62.9243 101.489C63.0751 100.673 63.1581 99.8498 63.2181 99.0231C63.2499 98.5884 63.1079 97.5298 63.3773 97.1039C63.7958 96.4431 64.5898 96.7054 65.194 96.4163C65.3994 96.3178 65.602 96.0284 65.7945 95.9627C66.0639 95.8706 66.3936 95.9603 66.6732 95.8716C66.7819 95.8374 66.807 95.5182 66.9866 95.4772C67.339 95.3966 67.6891 95.5246 68.0374 95.5293C68.7996 95.5395 69.5518 95.4054 70.2828 95.1627C70.9476 94.942 71.5041 94.4359 72.1676 94.2534C72.0998 94.2723 73.2611 94.3644 73.1984 94.2991C73.254 94.0134 73.3095 93.7276 73.3651 93.4419C73.806 93.7496 75.3092 94.1552 75.7755 94.0851C76.5251 93.9721 76.3671 93.297 77.0025 94.1836C77.3624 93.8702 77.7219 93.5567 78.0815 93.2432C78.3539 94.3854 80.2306 93.8312 81.0811 93.8942C82.2797 93.9836 83.2238 93.7588 84.3159 94.1755C85.6443 94.6833 86.8093 95.2182 88.24 95.3567C89.2397 95.4532 89.6555 95.9227 90.6348 96.2125C91.951 96.6015 92.055 97.0308 91.6433 98.3745C91.3095 99.4639 91.0211 100.304 91.5087 101.422C92.3739 103.404 94.7246 104.22 96.2403 105.59C92.6897 108.08 89.1841 110.529 85.7521 113.182C84.3139 114.293 82.7846 115.406 81.9656 117.078C81.2102 118.621 80.7819 120.475 80.3275 122.127C79.2848 125.914 82.2217 128.462 85.2387 130.128C85.8632 130.473 90.1631 135.865 89.2902 136.488ZM83.4346 141.066C83.2221 140.337 83.2499 140.143 83.9537 139.882C84.22 139.783 85.2411 139.654 85.4064 140.019C85.7805 140.848 83.8141 140.837 83.4346 141.066ZM113.353 88.2869C113.605 89.9031 113.853 91.5197 114.079 93.1396C114.203 94.0347 114.484 94.8262 113.817 95.5013C113.438 95.8845 112.518 96.0277 112.034 96.2318C111.336 96.5264 110.655 96.8639 109.984 97.2153C108.787 97.8416 107.536 98.2187 106.354 98.7838C105.84 99.0289 105.535 99.5123 105.091 99.8457C104.482 100.302 103.742 100.524 103.113 100.958C101.991 101.734 100.962 102.653 99.8398 103.435C98.5687 104.32 98.3037 104.036 97.5897 102.727C96.9489 101.553 96.1797 101.017 95.257 100.096C94.8981 99.7378 93.6138 97.6967 94.7046 97.521C94.9842 97.4756 95.9499 97.8954 96.1688 98.0298C96.5013 98.2336 97.0326 99.3925 97.303 99.4121C97.79 99.4476 98.4135 98.0623 98.7171 97.6977C100.706 95.3059 102.894 92.9402 105.198 90.848C106.393 89.7636 107.648 88.7754 109.002 87.9C109.965 87.2777 110.805 86.4057 111.755 85.8152C111.956 85.6416 112.183 85.5173 112.439 85.4428C112.934 85.218 113.12 85.412 112.997 86.0248C113.281 86.6244 113.25 87.6254 113.353 88.2869ZM69.85 86.169C70.3333 85.6774 70.9439 85.2844 71.3655 84.7356C71.6033 84.4262 71.7602 83.8727 72.0323 83.6726C72.5061 83.3239 73.1838 83.4847 73.7348 83.0172C74.2668 82.5652 74.7341 82.0242 75.254 81.5554C76.3807 80.5397 77.5433 79.606 78.6487 78.5721C79.277 77.9844 79.9357 77.222 80.4939 76.8341C80.6419 76.7311 80.8076 76.5781 80.9649 76.4989C81.301 76.3296 81.4688 76.502 81.9595 76.3442C82.2841 76.2403 82.5159 75.8296 82.7761 75.6353C83.3952 75.1735 84.2017 74.9907 84.7975 74.5462C85.3932 74.1017 85.6799 73.4114 86.4999 73.0407C87.4918 72.5925 88.2353 72.9466 88.9523 72.0894C89.2448 71.74 89.3247 71.2996 89.7839 71.0792C90.3369 70.8134 90.8225 71.0954 91.3508 70.7935C91.707 70.5897 91.9503 70.1624 92.318 69.9393C92.976 69.5415 93.7043 69.4992 94.3196 69.0066C94.8391 68.5913 94.5507 68.6339 95.1658 68.4585C95.4362 68.3814 95.7361 68.3482 96.0248 68.2497C96.9496 67.9345 98.4596 67.5485 99.0072 66.6724C99.2854 67.0776 99.3806 67.1599 99.8317 67.034C100.069 66.8413 100.286 66.6297 100.484 66.3985C100.629 66.5817 100.785 66.5928 100.951 66.4314C101.927 66.0962 102.822 65.5203 103.783 65.2008C103.919 65.2742 104.056 65.348 104.192 65.4211C104.381 65.4316 104.458 65.3392 104.422 65.1435C104.8 65.0745 105.236 64.9083 105.584 64.7566C106.253 64.4658 106.991 63.7745 107.778 64.0219C109.092 64.435 109.155 67.1142 109.382 68.1759C109.941 70.7924 110.504 73.408 111.065 76.0239C111.293 77.0886 111.494 78.1611 111.795 79.2076C111.991 79.8914 112.48 80.8999 112.304 81.6271C112.087 82.5185 111.217 82.8086 110.489 83.221C109.485 83.7891 108.515 84.4194 107.566 85.0738C103.535 87.8516 100.53 91.6717 97.6721 95.591C97.1424 94.8221 95.7242 93.7429 94.8401 93.3962C94.221 93.1538 93.6639 93.3491 93.0475 93.0533C92.608 92.842 92.2431 92.4293 91.8273 92.1636C89.2895 90.5396 86.2265 89.1973 83.2848 88.553C77.2492 87.2303 71.3404 89.2782 65.4881 90.2501C66.6755 88.619 68.4512 87.5905 69.85 86.169ZM110.25 41.9064C111.283 38.543 113.023 35.2869 115.498 32.7639C116.746 31.4919 118.213 30.3802 119.857 29.673C121.288 29.0582 122.989 28.4685 122.967 30.4456C122.918 34.7374 121.926 38.9807 121.805 43.2795C121.687 47.492 122.393 50.8733 124.944 54.2679C123.328 54.643 121.712 55.0235 120.101 55.4227C118.878 55.7257 117.609 56.0655 116.452 56.2737C115.308 56.4789 114.256 56.613 113.125 56.9992C112.362 57.2596 111.168 58.0555 110.343 57.8828C108.971 57.5958 109.296 52.6805 109.225 51.4996C109.027 48.1647 109.265 45.1161 110.25 41.9064ZM135.315 48.382C137.189 46.1097 139.136 43.4589 142.288 43.0371C145.336 42.6292 146.459 46.281 146.265 48.7436C146.2 49.5767 146.076 51.7403 145.47 52.4154C144.8 53.1622 143.61 52.5992 142.758 52.4841C139.082 51.9868 135.314 52.8169 131.628 52.8169C132.857 51.3381 134.092 49.8652 135.315 48.382ZM150.398 57.4431C151.677 57.6262 152.698 57.8209 152.081 59.2749C150.845 62.1874 149.895 64.9668 150.978 68.1417C151.805 70.5663 154.425 73.5096 157.042 73.9954C157.959 74.1657 159.338 73.861 159.902 74.7916C160.404 75.6207 159.86 78.1066 159.801 79.0271C159.584 82.4562 158.705 85.8589 156.483 88.5534C154.506 90.9509 152.094 92.8274 149.219 90.5643C146.796 88.657 145.365 85.2448 144.648 82.3286C144.265 80.772 144.218 79.2188 144.145 77.6279C144.08 76.221 143.812 75.3286 145.404 75.0367C145.831 74.9589 146.898 74.9833 146.899 74.3322C146.901 73.4574 145.745 73.7855 145.303 73.7411C143.597 73.5712 144.396 71.5894 144.555 70.3077C144.826 68.1251 145.264 65.9669 145.667 63.8063C146.009 61.966 146.028 59.5542 146.772 57.8337C147.206 56.829 149.545 57.3209 150.398 57.4431ZM153.539 63.9062C153.733 62.7199 153.836 61.2374 155.014 60.5817C156.309 59.8613 156.957 61.035 157.596 61.9941C159.29 64.5386 161.166 66.9195 161.443 70.0781C161.476 70.4549 161.638 71.2112 161.275 71.4719C161.112 71.5884 160.725 71.2813 160.474 71.2996C159.132 71.3961 158.161 71.7553 156.845 70.9983C154.27 69.5161 153.07 66.7689 153.539 63.9062ZM163.664 71.0115C163.387 68.2493 162.11 65.8 160.684 63.4681C159.981 62.3184 158.615 61.0614 158.13 59.8467C157.87 59.196 158.33 58.3903 159.276 58.6693C159.746 58.8084 160.654 60.0563 160.968 60.4879C161.777 61.5977 162.447 62.8354 163.087 64.047C163.77 65.3419 165.714 70.094 163.664 71.0115ZM155.187 43.5077C155.336 40.909 155.351 37.9248 157.036 35.7683C158.341 34.0959 160.732 33.368 162.671 32.7215C165.284 31.8504 168.421 31.716 171.154 31.9975C173.558 32.2455 175.374 33.8812 176.857 35.6799C178.367 37.5091 179.536 39.8643 180.574 41.9924C180.833 42.5249 183.036 45.9418 181.546 45.8622C180.955 45.8304 180.441 44.6777 179.989 44.3371C179.634 44.0707 179.214 44.1035 178.896 43.8902C178.555 43.6617 178.629 43.4501 178.365 43.1678C176.545 41.2259 174.871 42.3441 172.908 43.3668C172.816 42.6894 172.977 41.4311 172.41 40.9361C171.668 40.2881 170.893 41.3146 170.36 41.8177C169.876 42.2764 169.279 43.1119 168.669 43.3601C167.877 43.682 168.146 43.3398 167.458 43.0693C166.072 42.5249 165.007 44.1363 164.306 45.0734C164.045 45.4228 163.618 46.3054 163.15 46.3998C162.697 46.4909 162.638 46.169 162.248 46.0501C161.145 45.714 160.839 46.5 160.488 47.4761C160.092 48.5736 159.756 49.6312 159.17 50.6563C158.135 52.4702 157.69 53.0671 158.509 55.0702C157.313 55.2476 157.062 55.3902 156.468 54.3295C155.858 53.2364 155.699 52.3297 155.737 51.0734C155.818 48.446 155.032 46.1764 155.187 43.5077ZM182.956 55.9396C184.209 58.1994 185.005 61.3441 184.991 63.9187C184.985 65.196 184.91 66.7668 184.313 67.9257C183.74 69.0374 182.541 69.594 181.437 70.0676C178.776 71.2099 175.777 71.1967 172.979 70.6875C171.526 70.4228 170.114 70.5937 168.871 69.722C167.935 69.0652 166.807 68.4277 166.533 67.2242C166.419 66.7205 166.596 66.2983 166.559 65.804C166.604 65.5687 166.587 65.3396 166.508 65.1154C166.345 65.0217 166.18 64.9303 166.014 64.8412C165.884 64.4658 166.134 64.0473 166.07 63.6553C165.992 63.182 165.599 62.7968 165.415 62.3678C164.909 61.185 165.271 60.5235 166.218 59.7201C166.445 59.5417 166.673 59.3653 166.903 59.1903C167.109 58.8646 167.337 58.8633 167.586 59.1859C168.037 59.192 168.024 59.3311 168.499 59.193C169.538 58.8903 170.411 57.785 171.429 57.3967C171.825 57.2457 172.415 57.374 172.737 57.0957C173.024 56.8469 172.839 56.3249 173.092 56.0808C173.897 55.3001 175.165 56.0402 175.91 54.9054C176.518 53.9795 176.389 52.6659 176.452 51.6147C178.319 51.9712 179.128 53.7591 180.662 54.6582C180.965 53.4831 181.009 53.5184 182.18 53.1957C181.65 54.1765 182.508 55.1308 182.956 55.9396ZM184.385 43.4654C184.729 43.9082 184.992 45.0074 184.385 45.1134V43.4654ZM185.979 47.4635C188.83 47.4693 190.652 51.07 191.484 53.3007C192.389 55.7263 193.342 58.9618 191.654 61.3241C191.007 62.23 190.212 62.313 189.17 62.1955C187.915 62.054 187.271 61.8725 187.763 60.5323C188.683 58.0206 187.991 54.8275 186.359 52.7248C188.603 52.2918 187.181 50.2355 186.055 49.466C184.739 48.5675 183.677 47.4585 185.979 47.4635ZM120.893 177.637C120.222 179.415 119.54 181.186 118.977 183.018C118.444 184.753 118.753 186.708 118.09 188.377C117.682 188.175 117.565 187.817 117.21 187.599C116.992 187.465 116.611 187.412 116.423 187.263C116.1 187.009 115.318 186.062 115.106 185.695C114.373 184.425 114.862 182.359 115.254 181.053C115.738 179.436 116.566 177.883 117.678 176.609C118.458 175.716 118.889 176 119.931 176.44C120.548 176.7 121.183 176.866 120.893 177.637ZM115.812 191.66C115.276 192.743 114.286 193.635 113.697 194.727C113.08 195.873 112.613 197.164 111.826 198.212C111.025 199.28 110.305 199.101 109.201 199.562C108.805 199.727 108.638 200.034 108.32 200.273C107.722 200.721 107.067 200.996 106.439 201.394C105.992 200.299 104.627 194.8 102.89 194.918C101.38 195.02 102.153 197.899 102.347 198.748C102.512 199.466 102.7 200.194 102.95 200.887C103.203 201.586 103.991 202.634 103.699 203.401C103.329 204.375 102.407 204.311 101.946 203.6C101.56 203.006 101.364 202.198 101.079 201.551C100.829 200.982 99.6863 197.869 98.6981 198.352C97.7463 198.817 99.2268 201.835 99.4745 202.428C100.073 203.859 101.22 205.235 99.7039 206.382C97.402 208.123 94.5674 209.434 91.9886 210.689C90.4833 211.422 89.1299 212.386 87.5497 212.981C86.0825 213.533 84.3868 213.627 82.9679 214.262C82.6189 214.419 82.8531 214.613 82.3431 214.704C81.9154 214.78 81.1682 214.576 80.7097 214.58C79.95 214.587 79.1889 214.645 78.4308 214.55C78.0035 214.496 77.0313 214.029 77.1852 214.801C76.581 214.633 76.3471 214.024 75.9063 213.643C75.5135 213.304 75.012 213.12 74.5735 212.853C73.667 212.302 72.9893 211.674 72.7172 210.624C72.0788 208.158 73.4285 205.592 75.0944 203.872C76.0506 202.886 77.1723 202.066 78.0489 201.004C78.3566 200.632 78.5755 200.198 78.9659 199.896C79.444 199.525 80.1001 199.479 80.563 199.103C80.9076 198.824 81.0106 198.378 81.3719 198.122C81.9059 197.743 82.5308 197.9 83.0354 197.402C83.3231 197.118 84.3109 195.78 84.2417 195.409C84.5121 195.5 84.7832 195.59 85.0533 195.681C85.218 194.856 86.6416 193.839 87.3437 193.444C87.6989 193.244 88.3908 193.254 88.6551 193.039C89.0065 192.752 88.9777 192.153 89.2566 191.794C90.0567 190.765 91.7307 190.302 92.7903 189.586C94.138 188.674 95.4471 187.64 96.6646 186.561C99.1255 184.379 101.295 181.844 103.067 179.074C103.781 177.958 104.444 176.82 104.952 175.597C105.265 174.845 105.577 173.506 106.35 173.07C107.148 172.619 108.982 173.229 109.876 173.294C111.189 173.389 113.236 173.33 114.412 173.974C115.671 174.664 114.648 175.234 114 176.056C113.052 177.258 112.484 178.73 112.011 180.173C111.646 181.283 111.578 182.357 111.34 183.476C111.088 184.659 111.09 186.256 111.674 187.343C112.251 188.418 116.414 190.443 115.812 191.66ZM66.1798 213.467C63.3529 209.622 65.6932 203.993 68.4587 200.886C71.7951 197.136 76.5437 195.028 80.4444 191.979C84.9547 188.453 89.587 185.178 93.5836 181.043C95.6094 178.947 97.3732 176.688 98.9726 174.252C100.33 172.184 101.316 169.429 104.059 169.13C102.441 171.146 102.346 174.049 101.095 176.293C99.7707 178.669 97.8178 180.645 95.829 182.472C91.6297 186.328 87.0943 189.861 82.5586 193.308C80.2434 195.067 77.9923 196.905 75.685 198.673C73.6186 200.257 71.4481 201.611 70.2574 204.023C68.2028 208.186 68.0801 214.353 72.6298 216.918C70.2855 216.451 67.6488 215.465 66.1798 213.467ZM312.652 40.0617C311.816 38.3899 310.249 37.7945 308.675 37.1404C307.134 36.5002 305.726 35.7117 304.018 35.5069C303.258 35.4159 301.115 35.642 301.015 34.5421C300.932 33.6255 303.171 32.7056 303.687 32.0073C304.452 30.9723 304.971 29.2917 304.674 27.9845C304.393 26.7447 303.187 26.3531 302.06 26.1284C298.555 25.4301 294.828 25.9436 291.314 26.2306C291.744 25.6296 292.351 25.1366 292.696 24.4168L293.253 25.574C293.57 24.9123 293.914 24.2628 294.309 23.643C294.575 23.9426 294.843 24.2425 295.109 24.5421C294.666 22.9862 296.158 22.9942 296.001 21.6826C295.94 21.1725 295.594 20.949 295.509 20.5389C295.342 19.7237 295.972 19.2138 295.255 18.4578C294.457 17.6159 293.152 17.9498 292.223 18.0284C292.107 18.0385 291.938 18.2691 291.787 18.2878C291.578 18.3142 291.458 18.0269 291.199 18.0422C290.507 18.0831 289.896 18.6205 289.208 18.7838C286.017 19.5407 282.826 20.8907 279.764 22.151C276.647 23.434 273.586 24.9279 270.869 26.9415C267.96 29.0965 265.859 31.867 263.536 34.5966C262.444 35.8793 261.314 37.1113 260.483 38.589C260.053 39.3528 259.665 41.7517 258.892 42.1004C258.052 42.4788 255.941 41.408 255.082 41.2103C253.061 40.7455 251.049 40.5515 248.977 40.645C247.329 40.7188 245.59 40.6748 243.955 40.8762C243.006 40.993 240.641 42.0448 240.49 43.2213C240.423 43.744 241.022 44.1787 241.156 44.6685C241.36 45.4093 241.024 46.1943 241.258 46.9368C241.735 48.4507 243.951 49.0076 245.257 49.4843C248.903 50.8158 252.598 51.8483 256.282 53.04C257.882 53.5583 259.251 54.383 260.7 55.2111C261.903 55.8973 263 56.5842 261.785 57.873C260.635 59.0938 260.778 59.5867 261.121 61.2686C261.482 63.0436 261.608 64.8385 262.079 66.5962C262.548 68.3468 263.424 70.0189 263.253 71.871C263.083 73.7171 262.318 75.6133 261.603 77.3053C260.881 79.0143 260.084 80.7033 259.299 82.3848C258.573 83.9404 257.787 85.5177 256.108 86.1815C252.901 87.4487 248.804 87.2479 245.463 86.7875C241.67 86.2652 237.751 85.3795 234.164 84.0274C230.715 82.7274 226.921 80.7334 224.069 78.3775C222.545 77.1191 220.895 76.1868 219.278 75.0604C217.639 73.9192 216.394 72.3802 214.958 71.0139C212.144 68.3357 208.68 66.4903 205.114 65.0179C201.106 63.3628 196.967 63.5348 192.72 63.3557C193.388 62.0432 194.249 60.7889 194.565 59.3277C194.894 57.806 194.656 56.1525 194.447 54.6322C194.042 51.673 193.276 49.0686 191.406 46.6785C190.551 45.5856 189.553 44.7335 188.129 44.5748C187.266 44.4783 185.671 45.1405 185.049 44.4102C184.774 44.0883 184.839 43.4112 184.666 43.0148C184.513 42.6627 184.206 42.3082 184.039 41.926C183.326 40.2912 182.436 38.8463 181.548 37.2954C181.194 36.6786 180.921 35.7683 180.439 35.2493C180.177 34.9669 179.84 34.8386 179.693 34.6321C179.418 34.2455 179.292 33.5389 179.063 33.1028C178.671 32.3563 178.173 31.6626 177.598 31.0465C176.679 30.0619 175.496 29.1929 174.236 28.7024C173.536 28.4298 173.023 28.3654 172.292 28.4053C172.078 28.4169 171.84 28.5403 171.626 28.5241C171.113 28.4851 171.193 28.3015 170.783 28.2162C168.034 27.6444 164.348 28.4467 161.77 29.4317C159.054 30.4692 156.849 31.8372 155.198 34.2956C151.145 40.3332 152.089 48.1288 153.809 54.7787C152.769 54.5059 151.733 54.1833 150.683 53.952C150.04 53.8102 149.162 53.8369 148.588 53.4977C147.31 52.7431 148.349 50.807 148.357 49.5561C148.377 46.3772 146.875 41.4064 143.601 40.0637C140.189 38.6645 136.038 42.5916 133.929 44.8185C132.576 46.2472 131.345 47.7868 130.05 49.2666C129.146 50.3012 127.951 51.9502 126.365 51.6801C122.905 51.0907 123.96 44.5148 124.114 42.2923C124.357 38.7789 124.875 35.209 124.877 31.6865C124.879 29.5453 124.508 26.6566 121.876 26.4055C118.254 26.0602 114.823 29.3519 112.711 31.8845C107.14 38.5626 105.91 47.3897 107.4 55.77C107.618 56.9986 108.316 58.5142 106.985 59.277C105.237 60.279 103.002 60.8857 101.123 61.6217C96.9218 63.2663 93.0316 65.4601 89.0763 67.6044C85.1604 69.7277 81.3071 71.8352 77.7741 74.5706C74.2523 77.2975 70.766 80.187 67.5576 83.2785C65.9588 84.8196 64.4156 86.4273 62.9599 88.1051C61.5902 89.6834 60.4804 91.476 58.9914 92.951C57.9778 93.9555 56.1134 95.3022 55.8907 96.8344C55.7108 98.0711 57.7986 98.9286 58.7406 99.5001C59.3865 99.8921 59.8341 99.8799 59.8809 100.579C59.9385 101.45 59.0192 102.847 58.6918 103.677C57.8579 105.797 56.7681 107.552 55.335 109.316C52.1612 113.223 48.3259 116.535 44.6854 120.005C41.3032 123.23 37.9887 126.404 35.5092 130.405C34.9017 131.385 33.3899 133.399 34.8268 134.316C35.1985 134.554 36.3395 134.742 36.718 134.487C37.1873 134.17 36.9494 133.694 37.5038 133.377C37.3649 134.443 42.2073 132.361 42.5841 132.168C43.6017 131.647 44.5221 131.036 45.5624 130.569C46.1727 130.295 46.2466 129.914 46.719 129.608C46.9718 129.444 46.9748 129.664 47.3127 129.562C47.617 129.47 48.3313 129.435 48.5583 129.142C48.5644 129.134 48.8125 128.425 48.6017 128.572C49.4265 127.998 49.9141 128.866 49.4191 129.681C47.9548 132.09 46.1036 133.862 45.5299 136.757C45.3215 137.809 44.966 139.761 45.6085 140.719C45.6319 140.754 45.8481 140.653 45.8745 140.69C45.8989 140.725 46.1348 141.052 46.2317 141.145C46.7993 141.688 46.7627 141.93 47.7102 141.907C48.1304 141.897 48.9684 141.843 49.353 141.654C49.6424 141.511 49.7837 141.159 50.0063 141.034C50.2313 140.907 50.2049 140.841 50.416 140.767C50.4594 140.752 50.5424 141.121 50.6248 141.106C51.0761 141.021 51.2706 140.751 51.6542 140.534C52.7593 139.909 53.8426 139.222 54.8948 138.593C55.9541 137.959 56.7454 137.076 57.8003 136.341C58.9212 135.559 59.8379 134.96 60.7 133.875C61.2967 133.124 62.009 132.85 62.4095 132.48C62.885 132.041 63.7047 130.347 64.4709 130.145C64.8199 130.053 65.0991 130.362 65.2902 130.235C65.5054 130.093 65.2709 129.821 65.3787 129.66C65.5803 129.362 65.6054 129.312 65.9483 129.038C66.3872 128.687 66.9266 128.593 67.295 128.136C67.7047 127.627 67.7609 127.057 68.2648 126.58C69.4773 125.434 70.5566 124.227 71.8412 123.116C71.3451 125.88 70.8534 128.625 71.238 131.436C71.6105 134.16 72.7677 135.38 75.0391 136.763C75.5393 137.068 76.0639 137.511 76.601 137.726C76.9273 137.858 77.419 137.779 77.6623 137.876C78.4861 138.202 78.2058 138.87 78.3187 139.623C78.4939 140.789 79.5671 141.687 80.2597 142.596C80.8422 143.361 81.8927 145.1 82.8673 145.364C83.7473 145.602 84.5775 144.574 85.3105 144.135C86.4156 143.475 87.6196 143.002 88.7849 142.462C91.0611 141.409 93.2603 140.152 95.5111 139.037C96.5392 138.528 97.5775 138.321 98.6656 137.992C99.9726 137.598 101.088 136.842 102.341 136.327C104.595 135.4 106.755 134.295 108.995 133.322C113.632 131.308 118.689 129.925 122.815 126.904C124.681 125.537 127.084 125.391 128.924 124.063C130.841 122.679 129.666 120.561 128.845 118.862C126.602 114.221 125.263 109.4 122.176 105.171C120.571 102.974 119.089 100.704 117.69 98.3684C116.452 96.3012 116.477 93.9599 116.167 91.6249C115.959 90.0646 115.764 88.4975 115.51 86.9439C115.349 85.9564 114.829 84.7123 115.458 83.8175C116.134 82.8557 117.74 82.4464 118.755 81.9389C120.016 81.3086 121.238 80.6301 122.546 80.0962C125.537 78.8768 128.687 78.0328 131.824 77.2877C132.759 77.0656 136.763 75.4768 137.526 76.4075C136.589 77.0328 136.316 78.1679 135.896 79.1412C135.271 80.5912 134.625 81.9728 134.169 83.4922C133.226 86.6342 132.425 89.8263 131.656 93.0143C130.893 96.1797 129.983 99.3701 129.75 102.631C129.63 104.296 129.712 105.962 129.709 107.628C129.706 109.406 129.337 111.15 129.403 112.933C129.447 114.119 129.546 115.543 130.241 116.554C130.885 117.491 131.98 117.596 132.935 118.097C134.194 118.758 134.687 119.04 134.698 120.479C134.712 122.156 134.604 123.802 134.761 125.478C135.308 131.314 137.27 138.238 141.186 142.744C141.447 143.043 149.045 152.619 149.886 151.217C150.466 151.903 151.332 152.153 152.045 152.751C153.165 153.69 154.265 154.441 155.191 155.605C156.878 157.721 158.312 160.202 158.734 162.909C159.096 165.239 158.878 168.024 157.563 170.043C156.244 172.069 153.424 173.397 151.295 174.395C148.497 175.705 145.657 175.852 142.619 175.524C141.12 175.362 139.632 175.109 138.144 174.87C137.525 174.77 136.803 174.77 136.217 174.537C135.588 174.287 135.375 174.011 134.748 173.98C134.279 173.957 134.023 174.061 133.527 173.957C132.914 173.829 132.248 173.596 131.636 173.439C130.956 173.264 130.398 173.015 129.772 172.695C129.192 172.397 128.538 172.34 127.98 172.058C127.017 171.573 126.72 170.761 125.419 171.211C124.044 171.686 124.331 172.874 123.454 173.688C122.674 174.412 121.709 173.743 120.933 173.313C119.791 172.679 118.605 172.152 117.389 171.672C116.075 171.154 114.734 170.704 113.367 170.347C111.872 169.957 110.229 169.88 108.789 169.311C107.524 168.813 106.979 167.848 106.062 166.946C105.098 165.998 103.789 165.637 102.452 165.721C100.018 165.875 98.3552 168.505 97.0692 170.331C93.4762 175.433 89.5047 179.779 84.7019 183.787C82.4071 185.701 79.8205 187.33 77.6013 189.317C76.6653 190.155 75.9856 190.941 74.8771 191.565C73.421 192.384 72.0998 193.413 70.7077 194.337C65.2631 197.952 61.2696 203.219 62.7752 210.096C63.4529 213.191 64.8067 215.364 67.336 217.227C68.4844 218.072 69.5352 218.775 70.9981 218.726C72.3794 218.68 73.5979 218.632 72.7843 216.99C73.8151 217.309 74.6779 218.096 75.8033 218.499C77.0998 218.963 78.7866 219.252 80.1631 219.281C82.3675 219.326 84.9601 218.164 86.8903 217.672C87.4298 217.535 88.4698 217.31 89.0845 216.803C89.5735 216.4 89.4674 215.923 90.2075 215.732C91.1773 215.481 91.5467 215.774 92.4755 215.187C93.8229 214.334 95.2841 213.828 96.6819 213.043C98.565 211.985 100.375 210.791 102.241 209.702C102.489 210.386 103.951 214.457 104.854 212.494C105.639 210.786 103.089 209.324 104.639 207.594C106.118 205.945 106.427 207.679 107.862 208.445C109.854 209.508 109.555 207.522 108.976 206.347C108.745 205.876 108.258 205.167 108.401 204.619C108.677 203.559 109.535 204.181 110.209 204.289C111.271 204.46 112.13 204.167 112.927 203.456C113.592 202.862 114.692 202.349 115.094 201.567C115.295 201.175 115.33 200.637 115.497 200.221C115.717 199.673 115.875 199.806 115.955 199.126C115.878 198.774 115.848 198.419 115.863 198.058C116.038 198.023 116.211 197.988 116.385 197.952C116.391 197.927 116.403 197.241 116.333 197.343C116.495 197.107 116.845 197.008 117.046 196.68C117.23 196.379 117.059 195.801 117.133 195.445C117.283 194.725 117.693 194.144 118.028 193.502C118.737 196.499 118.532 199.625 119.21 202.624C119.766 205.085 121.033 207.292 122.511 209.311C123.197 210.247 124.104 210.911 124.821 211.8C125.428 212.552 125.731 213.215 126.627 213.66C127.223 213.955 127.893 214.107 128.507 214.362C128.9 214.526 129.794 215.277 130.162 215.264C129.841 215.276 130.765 215.304 130.551 215.267C130.567 215.27 130.442 214.866 130.553 214.872C131.893 216.14 133.292 216.143 134.843 216.93C135.553 217.291 135.819 217.269 136.576 217.402C137.557 217.575 138.382 218.134 139.322 218.194C140.767 218.286 142.396 218.48 143.904 218.426C144.314 218.412 145.085 218.148 145.406 218.506C145.619 218.743 145.216 220.453 145.19 220.845C144.925 224.953 145.475 229.266 147.209 233.024C148.648 236.141 150.182 239.828 152.725 242.208C155.545 244.846 159.496 246.705 163.267 247.417C167.443 248.204 171.582 247.614 175.771 247.37C180.021 247.121 183.953 246.519 188.052 245.288C191.864 244.143 195.474 242.651 199.121 241.078C201.602 240.008 204.747 238.468 203.446 235.219C203.132 234.434 201.913 232.25 200.834 233.328C199.879 234.281 201.475 236.085 202.197 236.691C196.754 240.483 190.149 241.738 183.78 243.081C180.282 243.819 176.836 243.788 173.278 243.798C170.263 243.807 167.249 243.894 164.253 243.473C161.543 243.092 158.388 242.378 156.372 240.399C154.262 238.328 152.266 235.855 150.826 233.271C149.246 230.436 148.863 227.37 148.735 224.172C148.668 222.489 148.593 220.785 148.769 219.105C148.897 217.886 149.52 217.741 149.829 216.778C150.543 217.777 151.013 217.408 151.889 216.824C152.456 218.405 152.204 220.047 152.106 221.677C152.011 223.266 152.223 224.876 152.418 226.453C152.748 229.133 154.033 231.929 155.664 234.088C156.402 235.064 157.507 235.476 158.507 236.149C159.781 237.009 161.103 237.809 162.433 238.58C164.938 240.032 167.673 241.273 170.496 241.492C171.485 241.569 172.205 242.084 173.383 242.012C174.083 241.969 174.788 241.73 175.486 241.749C176.186 241.768 176.787 241.991 177.506 241.939C180.493 241.723 183.573 240.745 186.53 240.208C189.732 239.627 192.954 239.001 196.011 237.853C197.336 237.356 198.43 236.714 199.169 235.464C199.697 234.571 199.559 232.97 200.543 232.436C199.898 231.605 200.138 231.458 200.695 230.715C200.955 230.369 201.794 229.452 200.776 229.469C201.086 228.131 200.568 226.836 200.347 225.527C200.253 224.962 200.278 224.106 199.928 223.619C199.724 223.335 199.384 223.33 199.201 223.121C199.013 223.117 198.865 223.038 198.759 222.885C198.747 222.662 198.851 222.525 199.073 222.477C199.022 222.034 199.35 222.193 199.022 221.501C198.575 220.557 197.727 219.735 196.924 219.092C196.239 218.545 195.735 217.574 194.946 217.282C193.918 216.902 192.84 216.489 191.76 216.136C189.311 215.336 186.884 215.03 184.315 215.474C183.138 215.677 181.979 215.926 180.843 216.29C180.178 216.502 179.161 217.077 178.572 216.457C178.37 216.245 177.948 214.441 177.974 214.246C178.079 213.463 179.679 213.147 180.262 212.874C181.154 212.457 182.806 212.01 183.372 211.182C183.609 210.835 183.341 209.36 183.38 209.333C183.754 209.081 185.324 212.663 185.752 212.908C186.371 213.261 188.108 212.794 188.747 212.724C190.655 212.514 192.594 212.395 194.462 211.941C198.045 211.069 201.562 209.72 205.048 208.529C211.681 206.262 218.083 203.275 224.046 199.564C226.83 197.831 229.596 195.615 231.715 193.099C232.671 191.964 233.346 190.618 234.322 189.504C235.448 188.22 235.093 187.062 235.597 185.454C236.619 182.199 237.86 179.242 238.416 175.83C238.988 172.318 239.225 168.732 239.066 165.176C238.752 158.147 238.411 151.484 235.32 145.026C232.487 139.108 228.816 133.326 224.452 128.426C223.437 127.288 222.365 126.203 221.119 125.317C219.777 124.363 218.301 123.615 217.086 122.488C216.09 121.564 215.256 120.474 214.214 119.597C212.934 118.52 211.412 118.044 209.913 117.356C208.476 116.697 207.166 115.84 205.696 115.24C204.803 114.876 203.897 114.539 202.965 114.284C202.276 114.096 201.361 114.084 200.731 113.727C199.734 113.161 198.714 111.515 198.063 110.585C197.114 109.228 196.599 107.65 196.147 106.073C195.597 104.154 195.086 102.223 194.549 100.301C194.365 99.644 193.678 97.3578 195.048 97.9127C195.448 98.0748 195.824 98.7963 196.133 99.1044C196.718 99.6894 197.44 100.212 198.165 100.61C199.336 101.251 200.555 102.024 201.677 102.466C202.666 102.856 203.683 103.619 204.605 104.169C204.745 104.253 204.786 104.54 204.967 104.62C205.392 104.808 205.675 104.288 206.076 104.416C206.625 104.59 206.715 105.106 207.019 105.517C207.46 106.112 207.689 106.16 208.363 106.466C209.112 106.807 209.663 107.481 210.393 107.815C211.281 108.22 213.235 107.905 213.369 109.303C214.748 108.403 216.479 110.151 217.34 111.059C218.207 109.729 219.743 111.286 221.054 110.844C220.328 111.852 220.46 111.752 221.606 111.877C222.572 111.982 223.151 112.624 224.107 112.997C224.769 113.255 225.5 113.689 226.188 113.871C226.838 114.042 227.331 113.657 227.897 113.753C228.288 113.82 228.659 114.157 229.03 114.249C229.501 114.366 230.172 114.509 230.704 114.635C231.352 114.789 231.996 114.647 232.642 114.77C233.396 114.912 234.046 115.361 234.812 115.506C235.665 115.669 236.552 115.56 237.4 115.767C238.173 115.955 238.643 116.172 239.444 116.18C240.638 116.192 241.972 116.349 243.151 116.215C243.779 116.143 244.127 115.825 244.838 116.136C245.312 116.343 245.596 116.984 246.242 116.691C245.56 116.417 246.159 115.354 246.911 116.169C247.088 115.712 247.203 115.457 247.698 115.307C247.673 115.754 247.6 116.203 248.171 116.297C248.214 115.985 248.259 115.674 248.302 115.363C249.543 116.307 249.837 116.64 251.007 115.488C250.976 115.865 250.817 116.292 251.201 116.559C251.446 116.151 251.692 115.743 251.937 115.336C252.352 116.651 254.332 116.197 255.292 115.964C255.664 115.874 256.692 115.731 256.935 115.426C257.104 115.215 257.083 115.049 257.145 114.919C257.201 114.804 256.57 114.521 257.107 114.356C257.511 114.231 257.826 115.117 258.301 115.082C258.724 115.05 258.896 114.334 259.2 114.189C259.229 114.175 259.436 114.478 259.579 114.412C259.802 114.309 259.929 114.037 260.175 113.941C260.707 113.733 261.396 113.785 261.992 113.538C262.748 113.225 263.51 113.076 264.282 112.818C265.261 112.491 265.705 111.849 266.499 111.324C266.685 111.2 266.879 111.272 267.062 111.185C267.309 111.068 267.567 110.793 267.86 110.663C268.78 110.255 269.566 109.978 270.438 109.416C271.216 108.914 272.244 108.544 272.936 107.942C273.513 107.441 273.824 106.709 274.404 106.2C275.236 105.468 277.388 104.549 277.039 103.12C278.431 103.332 278.772 102.432 279.283 101.438C279.769 100.493 280.766 100.209 281.418 99.3474C281.699 98.975 282.153 98.4584 282.308 98.0332C282.401 97.7803 282.169 97.5163 282.231 97.3436C282.52 96.5494 283.635 96.2027 284.151 95.4864C284.807 94.575 285.018 93.4226 285.566 92.4865C285.674 92.3024 285.939 92.193 286.042 91.9967C286.108 91.8704 285.97 91.5576 286.05 91.4337C286.241 91.1395 286.541 91.0379 286.733 90.7654C287.197 90.1056 287.282 89.1675 287.699 88.4193C287.802 88.2351 288.16 87.7206 288.205 87.6109C288.356 87.2425 288.31 87.0005 288.388 86.5905C288.411 86.4673 288.649 85.754 288.698 85.6521C288.851 85.3338 289 85.2868 289.234 84.9374C289.82 84.0629 290.183 82.6895 290.231 81.6278C290.252 81.1776 290.102 80.7121 290.265 80.2824C290.406 79.9111 290.84 79.6819 291.003 79.2929C291.432 78.2729 291.362 76.8307 291.48 75.7396C291.608 74.5503 291.989 73.3779 292.094 72.1974C292.146 71.6259 291.877 71.1198 291.897 70.5815C291.92 69.965 292.24 69.8499 292.363 69.3371C292.504 68.7514 292.298 68.0767 292.423 67.4487C292.541 66.8643 292.711 66.3237 292.759 65.7245C292.886 64.1638 292.707 62.531 292.64 60.9697C292.613 60.3637 292.533 59.7316 292.693 59.1385C292.822 58.6611 293.349 58.1273 293.332 57.6096C293.278 56.0097 291.997 57.3943 291.261 57.2846C290.405 57.157 290.248 55.2381 290.022 54.5103C289.471 52.7323 288.92 50.9542 288.369 49.1766C290.996 48.493 293.728 48.6901 296.41 48.5056C299.046 48.3244 301.619 47.753 304.175 47.1094C306.333 46.5664 308.694 46.2512 310.633 45.0914C312.261 44.1177 313.604 41.9629 312.652 40.0617Z" fill="#212243"/>
<path fill-rule="evenodd" clip-rule="evenodd" d="M57.5121 74.4802C58.5629 73.9344 58.2979 73.1802 59.0698 72.4794C63.3891 68.5577 68.4582 65.1334 73.5385 62.3059C78.8909 59.3267 84.8966 58.0653 90.3673 55.4254C91.1033 55.0702 92.0593 54.515 91.7848 53.5258C91.4639 52.37 90.3622 52.9019 89.5771 53.1747C86.9603 54.0837 84.1755 54.426 81.5215 55.2246C75.8563 56.9292 70.551 59.8687 65.752 63.3093C62.96 65.3104 60.2854 67.5231 57.9011 70.0087C57.0231 70.9235 55.8523 71.9909 55.6239 73.3088C55.341 74.9399 56.306 75.1065 57.5121 74.4802Z" fill="#212243"/>
<path fill-rule="evenodd" clip-rule="evenodd" d="M73.8728 177.019C73.8477 175.578 72.2764 176.102 71.4682 176.295C68.1819 177.083 65.2442 177.687 62.3361 179.512C56.9386 182.898 52.8491 188.044 50.2033 193.738C49.8509 194.495 48.4324 196.897 49.5693 197.611C50.3188 198.083 50.7736 196.71 51.0535 196.2C52.4784 193.606 54.3866 191.31 56.3053 189.056C60.5648 184.052 65.6854 180.875 71.8118 178.556C72.5634 178.272 73.8918 178.067 73.8728 177.019Z" fill="#212243"/>
<path fill-rule="evenodd" clip-rule="evenodd" d="M255.499 141.615C254.363 139.33 252.524 136.511 249.981 135.57C248.574 135.049 247.741 135.911 248.159 137.35C248.491 138.495 249.6 139.055 250.428 139.814C252.558 141.768 253.87 144.685 254.648 147.394C255.471 150.258 255.635 153.365 255.62 156.33C255.612 157.896 255.194 159.256 254.967 160.779C254.878 161.378 254.726 162.698 255.415 163.072C256.941 163.901 257.647 159.574 257.802 158.742C258.377 155.673 258.321 152.847 257.838 149.783C257.395 146.982 256.774 144.178 255.499 141.615Z" fill="#212243"/>
<path fill-rule="evenodd" clip-rule="evenodd" d="M251.132 31.8199C251.753 30.9832 251.3 29.8119 251.485 28.8579C251.679 27.858 252.256 26.8465 252.745 25.9719C253.801 24.0835 254.978 22.2292 256.232 20.4679C257.528 18.6491 259.108 17.0994 260.485 15.3519C260.95 14.7607 261.776 13.9158 261.574 13.2042C261.249 12.0522 260.539 12.6137 259.971 13.0965C256.863 15.7364 254.127 18.9914 251.917 22.4101C250.868 24.0327 249.877 25.8096 249.53 27.7343C249.35 28.7284 249.349 29.7656 249.644 30.7389C249.829 31.3506 250.386 32.8253 251.132 31.8199Z" fill="#212243"/>
<path fill-rule="evenodd" clip-rule="evenodd" d="M59.6357 172.636C61.1927 172.492 62.7587 172.441 64.3195 172.361C65.4747 172.302 66.7742 172.373 67.8345 171.817C68.9016 171.258 68.4377 170.42 67.5506 170.296C67.0406 170.225 66.1799 170.569 65.6333 170.592C65.0413 170.618 64.4462 170.6 63.8539 170.602C62.1226 170.608 60.2571 170.595 58.5879 171.17C58.0426 171.358 57.2168 171.648 56.9925 172.271C56.513 173.602 58.9135 172.703 59.6357 172.636Z" fill="#212243"/>
<path fill-rule="evenodd" clip-rule="evenodd" d="M73.2699 50.7812C75.5311 50.5104 77.7168 49.8333 79.9445 49.4017C82.0628 48.9917 82.4233 47.3234 79.9157 47.3982C79.0736 47.4232 70.9557 48.9619 73.2699 50.7812Z" fill="#212243"/>
<path fill-rule="evenodd" clip-rule="evenodd" d="M260.123 134.456C258.604 134.076 259.39 135.76 259.86 136.281C260.729 137.243 261.205 137.964 261.463 139.247C261.614 139.994 261.472 141.681 262.107 142.253C262.732 142.815 262.775 142.442 262.886 141.747C263.199 139.79 262.574 135.07 260.123 134.456Z" fill="#212243"/>
<path fill-rule="evenodd" clip-rule="evenodd" d="M243.445 27.9196C243.876 27.4639 243.414 25.482 243.465 24.9011C243.527 24.1974 243.694 23.6018 243.904 22.9414C244.006 22.6212 244.519 21.4908 244.242 21.1399C243.86 20.6534 243.223 21.4755 243.021 21.7991C242.366 22.8523 242.213 24.6083 242.322 25.7942C242.361 26.2235 242.621 28.7915 243.445 27.9196Z" fill="#212243"/>
<path fill-rule="evenodd" clip-rule="evenodd" d="M153.995 195.046C154.067 193.923 155.149 193.145 155.152 191.951C155.156 190.61 154.252 190.029 153.127 190.901C152.449 191.426 151.921 192.707 151.003 192.875C149.162 193.212 148.441 189.909 146.628 190.291C145.058 190.622 145.883 193.315 146.357 194.224C146.859 195.187 147.77 195.863 147.473 197.048C147.121 198.455 145.912 199.266 146.382 200.872C147.256 203.856 149.152 201.066 150.293 200.128C151.106 199.46 151.597 199.578 152.386 200.234C153.467 201.132 154.293 201.741 155.604 202.346C156.76 202.88 157.875 203.252 157.911 201.462C157.94 200.054 156.876 198.653 155.942 197.698C155.167 196.906 153.916 196.295 153.995 195.046Z" fill="#212243"/>
<path fill-rule="evenodd" clip-rule="evenodd" d="M133.736 190.594C132.383 189.153 130.675 192.828 129.582 193.235C127.81 193.894 127.402 190.361 125.77 190.472C124.501 190.558 124.601 192.376 124.878 193.205C125.175 194.098 126.066 194.828 126.215 195.742C126.444 197.144 123.79 199.946 125.642 201.3C127.224 202.456 127.813 198.55 129.789 200.144C130.76 200.926 133.476 203.837 134.821 202.388C136.411 200.676 132.63 197.753 131.939 196.451C131.005 194.688 135.719 192.705 133.736 190.594Z" fill="#212243"/>
<path fill-rule="evenodd" clip-rule="evenodd" d="M166.508 140.531C166.12 140.36 165.493 140.643 165.073 140.625C164.623 140.606 164.153 140.401 163.709 140.326C162.743 140.16 161.044 140.399 160.358 139.539C159.659 138.661 160.191 136.899 159.892 135.832C159.729 135.251 159.541 134.535 158.758 134.794C157.85 135.094 157.872 136.76 157.764 137.491C157.604 138.569 157.476 139.391 156.391 139.775C155.588 140.059 154.743 139.916 154.094 140.575C153.618 141.058 153.297 141.94 153.669 142.571C154.229 143.519 155.44 143.028 156.28 143.327C157.561 143.784 157.256 145.876 157.519 147.076C157.687 147.848 158.057 150.009 159.166 149.974C160.678 149.927 160.091 146.891 160.007 146.005C159.922 145.106 159.72 144.344 160.724 144.064C161.572 143.829 162.756 144.266 163.632 144.261C164.739 144.254 166.042 143.977 166.71 142.986C167.091 142.42 167.333 140.895 166.508 140.531Z" fill="#212243"/>
<path fill-rule="evenodd" clip-rule="evenodd" d="M222.074 177.888C224.478 178.096 223.021 181.055 224.616 182.232C226.138 183.354 226.343 180.256 226.343 179.372C226.342 177.229 228.95 178.021 230.539 177.666C231.894 177.364 233.374 175.957 231.755 174.76C230.587 173.895 228.65 174.296 227.294 174.067C225.456 173.757 226.002 172.531 225.961 171.118C225.947 170.6 225.768 168.754 225.099 168.608C223.872 168.342 223.799 171.781 223.717 172.435C223.367 175.204 221.463 173.517 219.951 174.905C217.974 176.72 220.641 177.765 222.074 177.888Z" fill="#212243"/>
<path fill-rule="evenodd" clip-rule="evenodd" d="M107.731 126.264C103.975 129.34 99.7097 128.899 96.2722 125.588C94.8185 124.188 93.9401 122.777 94.0703 120.728C94.1868 118.884 94.7287 116.847 96.2065 115.602C97.4508 114.552 99.7978 114.176 101.374 114.029C103.582 113.824 105.558 115.025 107.085 116.526C108.416 117.833 109.971 119.498 110.176 121.439C110.392 123.481 109.227 125.038 107.731 126.264ZM108.302 114.025C104.933 110.783 98.9584 111.109 95.48 114.065C91.5755 117.383 90.908 123.616 94.6602 127.251C98.6145 131.082 103.834 130.669 108.02 127.491C110.265 125.787 111.484 123.6 111.796 120.793C112.092 118.141 110.145 115.797 108.302 114.025Z" fill="#212243"/>
<path fill-rule="evenodd" clip-rule="evenodd" d="M173.451 58.2292C173.073 59.4567 173.335 60.7645 173.402 62.0151C172.334 61.3475 171.669 60.1572 170.522 59.604C169.972 61.122 172.713 65.4638 174.438 64.0406C176.016 62.7382 174.851 59.1039 173.451 58.2292Z" fill="#212243"/>
<path fill-rule="evenodd" clip-rule="evenodd" d="M179.055 65.7147C178.205 66.0312 177.415 65.9435 176.576 66.1057C176.023 66.2127 175.952 65.8985 175.88 66.5312C175.727 67.8817 177.908 68.404 178.89 68.3851C180.089 68.3617 181.403 67.5563 181.287 66.2452C181.167 64.8791 179.98 65.3707 179.055 65.7147Z" fill="#212243"/>
<path fill-rule="evenodd" clip-rule="evenodd" d="M179.752 60.039C179.366 59.6889 178.477 58.3673 177.825 58.5934C177.325 58.7667 177.678 59.3636 177.825 59.6622C178.374 60.7821 179.451 61.7351 180.312 62.6336C179.675 62.8597 178.447 63.0053 178.771 63.9857C179.069 64.8862 180.42 64.7478 181.068 64.3686C183.286 63.0696 180.861 61.0455 179.752 60.039Z" fill="#212243"/>
<path fill-rule="evenodd" clip-rule="evenodd" d="M181.991 57.913C182.143 58.5315 182.224 59.1152 181.889 59.6951L180.042 56.3851C178.557 56.9945 181.162 61.7632 182.68 61.2354C183.73 60.8705 183.226 58.629 183.06 57.9238C182.971 57.5463 182.76 56.3459 182.236 56.224C181.206 55.9843 181.879 57.457 181.991 57.913Z" fill="#212243"/>
<path fill-rule="evenodd" clip-rule="evenodd" d="M105.784 124.674C104.927 124.043 103.507 125.52 102.602 125.526C100.771 125.536 101.768 123.39 100.622 122.695C100.024 122.332 97.523 122.698 97.9181 121.196C98.1556 120.293 99.0851 120.945 99.5945 120.393C100.234 119.702 99.3227 119.15 98.7558 118.866C99.0045 118.534 100.438 118.389 100.798 118.618C101.42 119.014 101.384 120.203 101.954 120.815C102.694 119.871 102.293 118.686 103.081 117.838C103.387 117.509 104.282 117.261 103.934 116.674C103.732 116.333 102.848 116.445 102.545 116.174C102.281 115.938 102.295 115.175 101.868 115.111C101.172 115.008 101.189 116.071 100.98 116.378C100.35 117.3 97.5857 116.982 98.7317 118.853C97.9682 118.473 95.8856 118.172 96.2898 119.501C96.3932 119.841 96.787 120.049 96.8845 120.436C96.9693 120.771 96.7829 121.25 96.7653 121.587C96.732 122.225 96.6809 122.972 97.1539 123.486C97.8042 124.192 98.6731 123.678 99.3705 123.986C100.321 124.404 99.9784 125.274 100.48 126.034C101.136 127.029 102.145 126.724 103.074 126.423C104.182 126.063 104.358 126.031 105.168 126.953C105.539 126.474 106.554 125.241 105.784 124.674Z" fill="#212243"/>
<path fill-rule="evenodd" clip-rule="evenodd" d="M107.274 120.789C106.38 120.623 106.732 117.962 105.644 119.119C105.236 119.552 105.654 120.398 105.199 120.862C104.893 121.174 104.506 120.99 104.2 121.194C103.925 121.378 103.855 121.73 103.693 121.999C104.268 122.257 104.713 122.291 105.327 122.178C105.327 122.64 105.02 124 105.809 123.901C106.543 123.808 106.336 122.443 106.709 122.019C107.088 121.587 108.617 121.787 108.76 121.181C108.936 120.43 107.665 120.861 107.274 120.789Z" fill="#212243"/>
</svg>
