<svg width="22" height="28" viewBox="0 0 22 28" fill="none" xmlns="http://www.w3.org/2000/svg">
<path d="M20.9735 14.9667C18.8802 9.52667 11.4268 9.23333 13.2268 1.32667C13.3602 0.740001 12.7335 0.286668 12.2268 0.593335C7.38683 3.44667 3.90683 9.16667 6.82683 16.66C7.06683 17.2733 6.34683 17.8467 5.82683 17.4467C3.4135 15.62 3.16016 12.9933 3.3735 11.1133C3.4535 10.42 2.54683 10.0867 2.16016 10.66C1.2535 12.0467 0.333496 14.2867 0.333496 17.66C0.840163 25.1267 7.14683 27.42 9.4135 27.7133C12.6535 28.1267 16.1602 27.5267 18.6802 25.22C21.4535 22.6467 22.4668 18.54 20.9735 14.9667ZM8.60016 21.6733C10.5202 21.2067 11.5068 19.82 11.7735 18.5933C12.2135 16.6867 10.4935 14.82 11.6535 11.8067C12.0935 14.3 16.0135 15.86 16.0135 18.58C16.1202 21.9533 12.4668 24.8467 8.60016 21.6733Z" fill="#212243"/>
</svg>
