<svg width="27" height="27" viewBox="0 0 27 27" fill="none" xmlns="http://www.w3.org/2000/svg">
<path fill-rule="evenodd" clip-rule="evenodd" d="M0 13.3333C0 5.97333 5.97333 0 13.3333 0C20.6933 0 26.6667 5.97333 26.6667 13.3333C26.6667 20.6933 20.6933 26.6667 13.3333 26.6667C5.97333 26.6667 0 20.6933 0 13.3333ZM2.66667 13.3333C2.66667 19.2267 7.44 24 13.3333 24C19.2267 24 24 19.2267 24 13.3333C24 7.44 19.2267 2.66667 13.3333 2.66667C7.44 2.66667 2.66667 7.44 2.66667 13.3333ZM8.66675 13.3333C8.66675 14.4379 7.77132 15.3333 6.66675 15.3333C5.56218 15.3333 4.66675 14.4379 4.66675 13.3333C4.66675 12.2288 5.56218 11.3333 6.66675 11.3333C7.77132 11.3333 8.66675 12.2288 8.66675 13.3333ZM13.3333 15.3333C14.4378 15.3333 15.3333 14.4379 15.3333 13.3333C15.3333 12.2288 14.4378 11.3333 13.3333 11.3333C12.2287 11.3333 11.3333 12.2288 11.3333 13.3333C11.3333 14.4379 12.2287 15.3333 13.3333 15.3333ZM22 13.3333C22 14.4379 21.1046 15.3333 20 15.3333C18.8954 15.3333 18 14.4379 18 13.3333C18 12.2288 18.8954 11.3333 20 11.3333C21.1046 11.3333 22 12.2288 22 13.3333Z" fill="#263D4B"/>
</svg>
