<svg width="32" height="33" viewBox="0 0 32 33" fill="none" xmlns="http://www.w3.org/2000/svg">
<path d="M2.6665 29.8333L21.3332 23.1667L9.33317 11.1667L2.6665 29.8333ZM16.4665 22.0733L7.0665 25.4333L10.4265 16.0333L16.4665 22.0733Z" fill="white"/>
<path d="M19.3733 17.2067L26.8266 9.75334C27.48 9.1 28.5333 9.1 29.1866 9.75334L29.9733 10.54L31.3866 9.12667L30.6 8.34C29.1733 6.91334 26.84 6.91334 25.4133 8.34L17.96 15.7933L19.3733 17.2067Z" fill="white"/>
<path d="M13.4131 9.67334L12.6265 10.46L14.0398 11.8733L14.8265 11.0867C16.2531 9.66001 16.2531 7.32668 14.8265 5.90001L14.0398 5.11334L12.6265 6.54001L13.4131 7.32668C14.0531 7.96668 14.0531 9.03334 13.4131 9.67334Z" fill="white"/>
<path d="M22.7465 16.34L20.6265 18.46L22.0398 19.8733L24.1598 17.7533C24.8131 17.1 25.8665 17.1 26.5198 17.7533L28.6665 19.9L30.0798 18.4867L27.9331 16.34C26.4931 14.9133 24.1731 14.9133 22.7465 16.34Z" fill="white"/>
<path d="M20.0796 8.34L15.293 13.1267L16.7063 14.54L21.493 9.75334C22.9196 8.32667 22.9196 5.99334 21.493 4.56667L19.373 2.44667L17.9596 3.86L20.0796 5.98C20.7196 6.63334 20.7196 7.7 20.0796 8.34Z" fill="white"/>
</svg>
